<?xml version="1.0" encoding="utf-8"?>
<!-- Generator: Adobe Illustrator 19.1.0, SVG Export Plug-In . SVG Version: 6.00 Build 0)  -->
<svg version="1.1" xmlns="http://www.w3.org/2000/svg" xmlns:xlink="http://www.w3.org/1999/xlink" x="0px" y="0px"
	 viewBox="0 0 100 20" style="enable-background:new 0 0 100 20;" xml:space="preserve">
<style type="text/css">
	.st0{fill:#D23327;}
	.st1{fill:none;}
</style>
<g id="Layer_1">
</g>
<g id="Layer_5">
	<g>
		<path class="st0" d="M17.4,6.4c-0.2-0.2-0.5-0.2-0.8-0.4c-0.2-0.1-0.3-0.2-0.4-0.3c-0.1-0.1-0.1-0.1-0.2-0.2
			c-0.2-0.2-0.4-0.4-0.6-0.6l0,0c0,0.1,0.1,0.2,0.1,0.3c0.1,0.2,0.1,0.3,0.1,0.5c0,0.1,0,0.2,0.1,0.4c0,0,0,0,0,0c0,0,0,0,0,0
			c0.1,0,0.2,0,0.4,0.1c0.1,0,0.2,0,0.3,0c0.3,0,0.7,0.1,1,0.2C17.3,6.5,17.3,6.5,17.4,6.4C17.4,6.5,17.4,6.5,17.4,6.4z"/>
		<g>
			<path class="st0" d="M18.8,6.7c-0.1,0.1-0.1,0.2-0.2,0.3c0,0.1-0.1,0.1-0.2,0.2c-0.3,0.4-0.5,0.7-0.8,0.7
				c-0.3,0.1-0.8-0.1-1.2-0.2c-0.1-0.1-0.3-0.1-0.4-0.1c-0.1,0-0.2-0.1-0.3,0c0,0-0.1,0.1-0.1,0.2c-1.4,3.2-0.8,6.8-0.8,10.2
				c0,0.6,0.1,1.6-0.4,2C14.1,20,13.8,20,13.6,20c-0.4,0-0.7,0-1.1,0c-0.3,0-0.6-0.1-0.7-0.4c-0.1-0.2-0.1-0.4-0.1-0.5
				c0-0.2-0.1-0.4-0.1-0.6c-0.1-0.4-0.2-0.8-0.3-1.3c-0.2-0.8-0.4-1.6-0.6-2.5c0-0.1-0.1-0.3-0.1-0.4c0-0.1,0-0.1,0-0.2
				c0-0.1,0-0.1,0-0.2c-0.1,0-0.3,0.1-0.5,0.1C9.9,14,9.7,14,9.5,14c-0.8,0.1-1.6,0.2-2.4,0.1c-0.2,0-0.3,0-0.5,0
				c-0.7,0-1.4,0-2-0.4c0,0-0.7,2.4-0.8,2.6c-0.2,0.9-0.4,1.8-0.5,2.8c0,0.3-0.1,0.7-0.3,0.8c-0.1,0.1-0.3,0.1-0.4,0.1l-1.5,0
				c0,0,0,0,0,0c-0.1,0-0.4,0-0.5-0.2c-0.1-0.1-0.1-0.1-0.1-0.2l0,0L0,12c-0.1-1.5-0.1-3,0.8-4.1c0.6-0.7,1.2-1.2,2-1.4
				C3.2,6.4,3.6,6.4,4,6.4l1.9-0.1c1,0,2.1-0.1,2.6-0.8c0.1-0.2,0.3-0.4,0.4-0.6C8.9,4.8,9,4.7,9,4.6c0.8-1.4,2.4-2.4,4.8-3
				c0.6-0.1,0.8-0.3,1.3-0.7c0.2-0.2,0.4-0.4,0.6-0.5l0.4-0.4L16.2,2c0,0.1,0.1,0.3,0.1,0.5c0.1,0.2,0.2,0.4,0.3,0.6
				c0.2,0.3,0.5,0.6,0.8,0.9c0.1,0.1,0.3,0.3,0.4,0.4c0.5,0.5,1,1.1,1.1,2C18.9,6.5,18.9,6.6,18.8,6.7z M17.1,7.4
				c0-0.1,0.1-0.1,0.1-0.2c0.1-0.1,0.1-0.2,0.2-0.3c0,0,0.1-0.2,0.2-0.2c0,0,0,0,0.1,0c0,0,0.1,0.1,0.2,0.1c0,0,0.1-0.1,0.1-0.1
				c0,0,0,0,0,0c0,0,0,0,0,0c0,0-0.2-0.1-0.2-0.1c0,0,0,0,0-0.1c0,0,0,0,0,0c0,0,0,0,0,0c0,0,0,0,0.1,0c0.2,0.1,0.3,0.2,0.5,0.3
				c0,0,0.1-0.1,0.1-0.1c-0.1,0-0.2-0.1-0.2-0.1c-0.1-0.1-0.3-0.1-0.4-0.2C17.8,6.3,17.9,6.2,18,6c0.1-0.1,0.2-0.3,0.2-0.4
				c0,0,0,0,0,0c0-0.1-0.1-0.1-0.1-0.2c0,0,0,0,0,0c-0.1,0.1-0.2,0.2-0.2,0.3c-0.1,0.1-0.1,0.2-0.2,0.3c0,0-0.1,0.1-0.1,0.1
				c0,0,0,0.1-0.1,0.1c0,0,0,0,0,0c-0.4-0.2-0.7-0.3-1.1-0.6c-0.4-0.3-0.7-0.7-1.1-1c0,0-0.1-0.1-0.1-0.1c0-0.1,0.2-0.2,0.3-0.2
				c0,0,0.1,0,0.1,0c0,0,0,0,0.1,0c0,0,0-0.2-0.1-0.2c-0.1,0-0.2,0.1-0.3,0.1c0,0-0.1,0-0.1,0c0,0,0,0-0.1-0.1c0,0-0.1-0.1,0-0.1
				c0,0,0.1,0,0.1,0c0,0,0.2-0.1,0.2-0.1c0,0,0-0.1,0-0.1c-0.1,0-0.2,0-0.3,0c0,0-0.1,0-0.1,0c0,0-0.1,0-0.1,0c0,0-0.1,0-0.1-0.1
				c-0.1-0.2-0.2-0.3-0.3-0.5c-0.2-0.3-0.4-0.7-0.6-1c0-0.1-0.1-0.1-0.1-0.2c0,0-0.1-0.1-0.1,0c0,0,0,0,0,0.1c0,0.1,0.1,0.1,0.1,0.2
				c0.3,0.4,0.5,0.9,0.8,1.3c0,0,0,0.1,0,0.1c0,0,0,0.1,0,0.1c0,0-0.1,0-0.1,0c-0.1,0-0.1,0-0.1,0c-0.1,0-0.1,0-0.2,0
				c0,0-0.1-0.1-0.1-0.1c-0.1-0.2-0.2-0.3-0.4-0.4c0,0-0.1-0.1-0.1-0.1c0,0,0-0.1,0-0.1c0,0,0.1,0,0.1,0c0.1,0,0-0.2,0-0.2
				c-0.1-0.2-0.3-0.5-0.4-0.7c0-0.1-0.1-0.1-0.1-0.2c-0.1,0-0.1,0-0.2,0.1c0,0,0,0.1,0,0.1c0,0.1,0.1,0.1,0.1,0.1
				c0.1,0.2,0.2,0.3,0.3,0.5c0,0.1,0.1,0.2,0.1,0.2c0,0.1-0.1,0.1-0.1,0.1c0,0,0,0.1,0,0.1c0,0,0,0.1,0.1,0.1
				c0.1,0.1,0.2,0.2,0.3,0.3C13.9,3.9,14,4,14,4c0,0,0.1,0.1,0.1,0.1c0,0-0.1,0-0.1,0c0,0,0,0,0,0c0,0,0,0,0,0c0,0,0,0.1,0,0.1
				c0,0,0,0,0,0c0,0,0,0,0,0c0.3,0,0.5-0.1,0.7-0.1c0,0,0,0,0,0c0,0,0,0,0,0c0,0,0,0.1,0,0.1c0,0-0.1,0-0.1,0c-0.1,0-0.2,0-0.3,0
				c-0.1,0-0.2,0-0.4,0c0,0-0.1,0-0.1,0c0,0,0,0,0,0.1c0,0,0,0.1,0,0.1c0,0,0,0,0,0c0,0,0,0,0,0c0.1,0,0.2,0,0.4,0
				c0.2,0,0.3,0,0.5,0c0,0,0.1,0,0.1,0c0,0,0,0,0.1,0.1c0.1,0.2,0.2,0.5,0.3,0.7c0,0.1,0.1,0.3,0.1,0.4c0,0.1,0,0.2,0,0.3
				c0,0,0,0,0,0c0,0,0,0,0,0c-0.6,0.1-1.2,0.5-1.7,0.7c-0.3,0.1-0.6,0.3-0.9,0.3c-0.4,0.1-0.7,0-1.1,0c-0.1,0-0.2,0-0.3-0.1
				C11.4,7.2,11.3,7,11.4,7c0.1-0.1,0.3-0.1,0.4,0c0.1,0,0.2,0,0.3,0c0.1,0,0.1-0.1,0.1-0.2c0,0,0-0.1,0-0.1c0,0,0,0,0,0
				c0,0,0.1,0,0.1,0c0.2,0,0.3,0.1,0.5,0.1c0,0,0.1,0,0.1,0c0.1,0,0.1-0.1,0.1-0.2c0-0.1,0-0.2-0.1-0.2c-0.1-0.1-0.2-0.1-0.3-0.1
				c0,0-0.1,0-0.1,0.1c0,0.1,0.2,0.2,0.2,0.3c-0.1,0-0.3,0-0.4-0.1c0,0-0.1,0-0.1,0c-0.1,0-0.2,0-0.2,0.1c0,0.1,0,0.2,0,0.2
				c-0.1,0-0.3,0-0.4,0c-0.1,0-0.3,0-0.4,0.1C11,6.8,10.9,7,10.9,7.1c-0.2,0-0.4-0.1-0.6-0.1C10.2,6.9,10,6.9,9.8,6.8
				c-0.1,0-0.2-0.1-0.3-0.2c0,0-0.1-0.1-0.1-0.2c0-0.1,0.1-0.1,0.2-0.1c0.1,0,0.2,0,0.3,0c0,0,0,0,0.1,0c0,0,0-0.1,0-0.1
				c0,0,0,0-0.1-0.1C9.7,6,9.6,5.9,9.5,5.8c0,0-0.1,0-0.1-0.1c0-0.1,0-0.1,0-0.1c0,0,0.1,0,0.1,0c0,0,0,0,0,0c0,0,0,0,0,0
				c0-0.1-0.1-0.1-0.2-0.2c-0.1,0-0.1,0-0.2,0c0,0-0.1,0-0.1-0.1c0,0,0,0.1-0.1,0.1c0.1,0,0.2,0.1,0.2,0.1c0,0-0.1,0.1-0.1,0.1
				c0,0,0,0-0.1,0.1c0,0,0,0.1,0,0.1c0,0,0,0,0.1,0.1C9.3,5.9,9.3,5.9,9.4,6C9.5,6,9.6,6.1,9.6,6.1c0,0,0,0,0,0c0,0,0,0,0,0
				c-0.1,0-0.4,0.1-0.4,0.2c0,0.1,0,0.2,0.1,0.3c0.1,0.1,0.2,0.1,0.2,0.1c0.1,0,0.1,0.1,0.2,0.1c0.2,0.1,0.3,0.2,0.5,0.3
				c0.2,0.1,0.4,0.2,0.6,0.2c0.3,0.1,0.5,0.2,0.8,0.2c0.1,0,0.3,0.1,0.4,0.1c0.1,0,0.2,0.1,0.3,0.1c0.1,0,0.3,0.1,0.4,0.1
				c0.6,0.1,1.3-0.1,1.8-0.5c0.2-0.2,0.4-0.4,0.6-0.7c0.1-0.1,0.1-0.1,0.2-0.2c0.1-0.1,0.3,0,0.4,0c0.2,0,0.3,0,0.5,0
				c0.2,0,0.4,0,0.6,0c0.1,0,0.2,0,0.3,0.1c0.1,0,0.2,0.1,0.1,0.2c-0.1,0.1-0.1,0.2-0.2,0.3C17,7.2,17,7.3,16.9,7.4
				C17,7.4,17.1,7.4,17.1,7.4z M6.7,12.6c-0.1,0.1-0.2,0.3-0.2,0.4c0,0.2,0.1,0.4,0.3,0.5c0.2,0.2,0.5,0.1,0.7,0.1
				c0.1,0,0.1,0,0.2,0c0.2,0,0.5-0.2,0.5-0.5c0-0.2-0.1-0.4-0.2-0.5c-0.1-0.1-0.3-0.1-0.5-0.1c0.1-0.2,0.1-0.4,0.1-0.5
				c0-0.1,0-0.2-0.1-0.2c-0.1-0.1-0.2-0.1-0.3-0.1c-0.2,0-0.3,0-0.5,0c0,0,0-0.1,0-0.1l0,0c0-0.1,0.1-0.2,0.2-0.2
				c0.1,0,0.2-0.1,0.2-0.2c-0.3-0.1-0.6-0.1-0.8,0C6.2,11.5,6,11.7,6,12c0,0.2,0.1,0.5,0.3,0.5c0.2,0,0.4-0.2,0.6-0.1
				C6.9,12.5,6.7,12.6,6.7,12.6z M14.5,10c0-0.1,0-0.2,0-0.3c0-0.1,0-0.1,0-0.2c0-0.1,0-0.1-0.1-0.1c0,0-0.1-0.1-0.1-0.1
				c-0.1-0.1-0.2-0.2-0.3-0.3c-0.2-0.2-0.5-0.4-0.8-0.4c-0.2,0-0.4,0-0.6,0c-0.1,0-0.2,0.1-0.3,0.1c-0.1,0-0.2-0.2-0.3-0.3
				c-0.1-0.1-0.1-0.1-0.2-0.2c-0.2-0.1-0.4-0.2-0.6-0.2c-0.2,0-0.3,0.1-0.4,0.2c-0.2,0.1-0.2,0-0.3-0.2c0-0.1-0.1-0.1-0.1-0.2
				c-0.1-0.1-0.2-0.2-0.3-0.2c-0.1-0.1-0.3-0.1-0.4-0.1c-0.1,0-0.3,0-0.4,0.1C9.7,7.7,9.6,7.8,9.5,7.8c-0.1,0-0.1-0.1-0.1-0.1
				C9.3,7.5,9.2,7.3,9.1,7.1C8.9,6.9,8.7,6.9,8.4,6.9c0,0-0.1,0-0.1,0c0,0,0,0-0.1-0.1C8.1,6.8,8,6.7,7.9,6.6
				c-0.1,0-0.1-0.1-0.2-0.1c-0.1,0-0.2,0-0.3,0.1c0,0-0.2,0.1-0.2,0.1c0.1,0.1,0.2,0.2,0.3,0.3C7.6,7,7.8,7.2,7.9,7.4
				c0.2,0.4,0.2,0.9,0,1.3C7.7,9,7.3,9.2,7,9.2c-0.3,0-0.2,0.1-0.2,0.3c0,0.3,0,0.5-0.1,0.8c-0.1,0.3-0.4,0.5-0.7,0.6
				c-0.3,0.1-0.6,0.1-0.9,0c-0.1,0-0.2-0.1-0.3-0.1c-0.2-0.1-0.4-0.4-0.4-0.6c0-0.1-0.2-0.8-0.2-0.7C4,9.5,3.7,9.5,3.4,9.5
				C3,9.5,2.6,9.4,2.3,9.1C2,8.9,1.9,8.7,1.7,8.5C1.7,8.3,1.6,8.2,1.6,8c0-0.1-0.1-0.2-0.1-0.3C1.4,7.9,1.3,8,1.2,8.2
				C1.1,8.2,1,8.3,1,8.4c0,0.1,0.1,0.2,0.1,0.3C1.2,8.8,1.3,9,1.5,9.2C1.6,9.4,1.8,9.7,2,9.8C2.2,10,2.5,10,2.8,10.1
				c0.3,0.1,0.7,0,1.1,0c-0.1,0.4,0.1,0.7,0.3,1c0.1,0.1,0.3,0.2,0.3,0.3c0.1,0.1,0,0.2-0.1,0.4c0,0.1,0,0.3,0.1,0.4
				c0,0.1,0.1,0.2,0.2,0.3c0.1,0.1,0.2,0.1,0.3,0.2c0.1,0.1,0.1,0.2,0,0.3c0,0.2,0,0.3,0.1,0.5c0,0,0,0,0,0.1c0,0,0.2,0,0.3,0.1
				c0.1,0,0.2,0,0.3,0c0.2,0,0.4,0.1,0.6,0c-0.2-0.1-0.3-0.2-0.4-0.3c-0.1-0.1-0.2-0.2-0.2-0.3c0-0.1,0-0.3,0.1-0.3
				c-0.4-0.1-0.8-0.2-0.9-0.7c0-0.1,0-0.1,0-0.2c0-0.1,0-0.2,0-0.4c0-0.1,0.1-0.2,0.2-0.3c0.1-0.1,0.3,0,0.5,0
				c0.2,0,0.4-0.1,0.6-0.2c0.2-0.1,0.3-0.2,0.5-0.3c0.2-0.1,0.3-0.3,0.5-0.3c0.2,0,0.4,0.2,0.4,0.4c0.1,0.2,0,0.5,0,0.7
				c0,0,0,0,0,0.1c0,0,0.1,0,0.1,0c0.6,0.1,0.7,0.8,0.6,1.2c0.1,0.1,0.2,0.2,0.2,0.4c0,0.2,0,0.3-0.1,0.4c0,0,0.3,0,0.3,0
				c0.1,0,0.2,0,0.3-0.1c0.1,0,0.2,0,0.2-0.1c0-0.1,0-0.2,0-0.3C9.3,13,9,12.9,8.9,12.7c0,0,0-0.1,0-0.1c0-0.2,0-0.3,0-0.5
				c-0.1-0.1-0.1-0.3-0.2-0.4c-0.1-0.1-0.2-0.1-0.3-0.2c-0.1,0-0.2,0-0.1-0.2c0-0.2,0-0.3,0-0.5c0-0.1-0.1-0.3-0.1-0.4
				c0-0.1,0.5-0.2,0.6-0.2c0.2,0,0.2,0.1,0.2,0.3c0.1,0.2,0.3,0.4,0.5,0.5c0.3,0.1,0.6,0.1,1,0c0.2-0.1,0.3-0.2,0.4,0
				c0.1,0.2,0.1,0.4,0.3,0.5c0.1,0.1,0.2,0.1,0.2,0.1c0.3,0.1,0.7-0.1,0.9-0.3c0.2-0.1,0.2,0.2,0.3,0.3c0.1,0.2,0.3,0.4,0.5,0.4
				c0.1,0,0.2,0,0.3,0c0.2,0,0.3,0,0.5,0c0.2,0,0.4-0.1,0.5-0.3c0.1-0.1,0-0.3,0-0.5c-0.1,0.1-0.2,0.1-0.4,0.2c-0.2,0-0.3,0-0.5,0
				c-0.2,0-0.4-0.1-0.6-0.2c-0.1-0.1-0.2-0.2-0.2-0.4c0-0.1-0.1-0.1-0.2,0c-0.1,0-0.1,0.1-0.2,0.1c-0.2,0.2-0.5,0.3-0.8,0.2
				c-0.1,0-0.1,0-0.2,0c-0.1,0-0.1-0.1-0.2-0.2c0-0.1-0.1-0.1-0.1-0.2c0-0.1-0.1-0.2-0.1-0.3c0,0-0.1-0.2-0.1-0.2
				c-0.1,0-0.2,0.1-0.2,0.1c-0.1,0-0.2,0.1-0.2,0.1c-0.3,0.1-0.7,0.1-0.9-0.2c-0.2-0.2-0.2-0.5-0.3-0.8c0,0,0,0,0,0
				c-0.1,0-0.5,0.2-0.6,0.2c-0.2,0-0.6,0-0.7-0.2C7.9,9.4,8.2,9.1,8.3,8.9c0.2-0.4,0.3-0.8,0.2-1.2c0-0.5,0.5,0,0.6,0.1
				C9.2,7.9,9.3,8,9.3,8.2c0,0.1,0,0.1,0.1,0.2c0,0,0,0.1,0,0.1c0,0,0.1-0.1,0.1-0.1c0.1,0,0.1-0.1,0.2-0.1c0.1,0,0.3-0.1,0.4-0.1
				c0.1,0,0.1,0,0.2,0c0.1,0,0.1,0.1,0.2,0.1c0.1,0.1,0.2,0.2,0.3,0.4c0,0.1,0,0.2,0.1,0.2c0,0.1,0.2,0,0.2-0.1
				c0.1,0,0.1-0.1,0.2-0.1c0.1,0,0.2,0,0.3,0c0.1,0,0.2,0,0.3,0c0.2,0,0.5,0.2,0.6,0.4c0,0.1,0,0.1,0.1,0.2c0,0.1,0.1,0.1,0.1,0
				c0.3-0.2,0.7-0.3,1-0.2c0.2,0.1,0.3,0.1,0.4,0.2c0.2,0.1,0.3,0.3,0.4,0.5C14.5,9.9,14.5,10,14.5,10C14.5,10.1,14.5,10.1,14.5,10
				C14.5,10.1,14.5,10.1,14.5,10C14.5,10,14.5,10,14.5,10z M12.8,10.6c0,0.1,0,0.2,0.1,0.3c0.1,0.2,0.5,0.3,0.7,0.2
				c0.1,0,0.1-0.1,0.2-0.2c0.1-0.1,0.1-0.2,0.2-0.2c0,0,0,0,0-0.1s0,0,0.1,0c0.1,0.1,0,0.2,0.1,0.3c0,0.1,0.1,0.2,0.1,0.3
				c0,0,0,0,0.1,0c0,0,0,0,0,0c0.1-0.1,0.1-0.2,0.1-0.4c0-0.2,0-0.5-0.1-0.7c-0.1-0.2-0.2-0.4-0.4-0.5c-0.2-0.1-0.5-0.1-0.7-0.1
				c-0.1,0-0.2,0.1-0.3,0.2c-0.1,0.1-0.3,0.3-0.4,0.3c0,0,0,0,0,0c-0.1,0-0.1-0.1-0.1-0.1c0-0.1-0.1-0.2-0.2-0.3
				c0-0.1-0.1-0.1-0.1-0.2c-0.3-0.3-0.9,0-1.2,0.2c0,0,0,0,0,0c0,0,0,0,0,0c0-0.1-0.1-0.2-0.1-0.4c-0.1-0.2-0.3-0.3-0.4-0.3
				c-0.2,0-0.3,0.2-0.5,0.2c0,0,0-0.1,0-0.1c0-0.1,0-0.3-0.2-0.2c-0.1,0-0.1,0.1-0.1,0.2c0,0.3,0,0.6,0.1,0.9
				c0.1,0.2,0.2,0.3,0.4,0.4c0.2,0.1,0.4,0.1,0.5,0c0.1,0,0.2-0.1,0.3-0.1C10.8,10,10.9,9.9,11,10c0.1,0.1,0.1,0.3,0.2,0.5
				c0,0.1,0.1,0.1,0.1,0.2c0.2,0.1,0.4,0.2,0.6,0.2c0.2,0,0.4-0.1,0.6-0.2c0,0,0.1-0.1,0.2-0.1c0.1,0,0.1,0,0.1,0
				C12.8,10.5,12.8,10.6,12.8,10.6z M0.5,11.9c0.1-0.1,0.2-0.3,0.2-0.5c0.1-0.2,0.1-0.5,0.1-0.8c0-0.6,0-1.3,0-1.9c0,0,0,0,0,0
				C0.4,9.6,0.4,10.7,0.5,11.9z M6.1,9.4c0-0.1,0-0.1,0-0.2c0-0.1-0.2-0.2-0.3-0.1c-0.1,0-0.2,0.1-0.3,0.1C5.3,9.2,5,9.1,4.9,8.8
				C4.8,8.6,4.7,8.3,4.7,8.1c0-0.4-0.1-0.8-0.1-1.2c0,0,0,0,0-0.1l-0.2,0c0,0,0,0,0,0c0,0.2,0,0.5,0,0.7c0,0.3,0.1,0.6,0.1,0.8
				c0,0.2,0.1,0.5,0.3,0.7C4.9,9.1,4.9,9.2,5,9.2c0,0.1,0,0.2,0,0.3c0,0.2,0,0.3,0.1,0.5c0,0,0.1,0.1,0.1,0.1c0,0,0.1,0,0.1,0
				c0.1,0,0.3,0,0.4,0c0.1,0,0.3-0.1,0.4-0.2C6.2,9.8,6.1,9.6,6.1,9.4z M4.3,6.8L4,6.8c-0.1,0-0.2,0-0.3,0C3.4,7,3.4,7.2,3.2,7.4
				C3.1,7.6,2.9,7.8,2.7,8.1C2.7,8.2,2.6,8.2,2.5,8.3c-0.1,0-0.3,0.1-0.4,0.1c-0.1,0-0.2,0-0.2,0c0,0,0,0,0,0C2,8.5,2.2,8.5,2.3,8.6
				c0.2,0.1,0.4,0.1,0.6,0.2C3.3,8.8,3.7,8.9,4,8.6c0.1,0,0.1-0.1,0.2-0.2c0-0.1,0.1-0.2,0.1-0.3c0-0.2,0-0.5,0-0.7
				C4.3,7.2,4.3,7.1,4.3,6.8z M1.9,7.6C2,7.6,2,7.7,1.9,7.6C2,7.7,2.1,7.7,2.1,7.7c0,0,0,0,0.1,0c0.1,0,0.2,0,0.3-0.1
				C2.7,7.6,2.9,7.5,3,7.4c0,0,0.1-0.1,0.1-0.1c-0.1,0-0.3,0-0.4,0c0,0-0.1,0-0.1,0.1c0,0-0.1,0-0.1,0C2.3,7.4,2.3,7.4,2.1,7.5
				C2,7.5,1.9,7.5,1.9,7.6z M6.5,8.8c0.4-0.1,0.8-0.2,1.2-0.2c0-0.1-0.2-0.2-0.4-0.2C7.2,8.4,7.1,8.3,7,8.2C6.8,8,6.5,7.8,6.3,7.7
				c-0.1,0-0.1-0.1-0.1-0.1c0,0-0.1-0.1-0.1-0.1C5.9,7.1,5.6,6.9,5.3,6.8l-0.5,0c0,0,0,0,0,0l0,0l0,0c0.1,0.3,0,0.6,0,0.9
				C4.8,8,5,8.2,5.2,8.4c0.1,0.1,0.2,0.2,0.2,0.3C5.7,8.9,6.2,8.9,6.5,8.8z M7.2,6.9c0,0-0.1,0-0.1,0c-0.2,0-0.3,0-0.5,0l0,0
				C6.5,7,6.4,7,6.2,7C6.1,7,6.1,7,6,7c0,0,0,0,0,0c0,0,0,0.1,0.1,0.1c0.1,0,0.2,0,0.2,0c0.1,0,0.3,0,0.5,0c0.2,0,0.3-0.1,0.5-0.1
				c0,0,0.1,0,0.1-0.1C7.3,7,7.2,6.9,7.2,6.9z M11.3,3C11.3,3,11.3,3.1,11.3,3c0.2,0.2,0.5,0.3,0.7,0.5c0.1,0.1,0.3,0.2,0.3,0.4
				c0.1,0.1,0.1,0.3,0.2,0.5c0,0.2,0.1,0.4,0.1,0.6c0.1,0,0.2,0,0.2-0.1c0.2-0.2,0.2-0.5,0.2-0.7c0-0.2,0-0.3,0-0.5
				c0-0.2,0-0.3-0.1-0.5c0-0.1-0.1-0.2-0.1-0.3c-0.1-0.1-0.1-0.2-0.2-0.3c0,0,0-0.1-0.1-0.1C12.1,2.6,11.7,2.8,11.3,3z M14.1,5.5
				c-0.1,0.1-0.1,0.1-0.2,0.1c-0.3,0-0.6,0.1-0.9,0c0,0-0.1,0-0.1,0c0,0,0,0,0,0c0,0,0.1,0.1,0.1,0.1c0.4,0.1,0.8,0.1,1.2-0.1
				c0,0,0.1,0,0.1-0.1c0,0,0.1-0.1,0-0.2c0-0.2-0.2-0.4-0.3-0.6c-0.2-0.1-0.4-0.2-0.6-0.4c0,0-0.1,0-0.1-0.1c0,0,0-0.1,0-0.1
				c0-0.1,0.1-0.1,0.2-0.1l0,0c-0.1,0-0.1-0.1-0.2-0.1c0,0-0.1,0-0.1,0c-0.1,0.1,0,0.2,0,0.3c0.1,0.2,0.3,0.4,0.5,0.5
				C13.9,5,13.9,5,14,5.1c0.1,0,0.1,0.1,0.1,0.2C14.2,5.3,14.1,5.4,14.1,5.5z M11.4,5.7C11.4,5.7,11.4,5.7,11.4,5.7
				C11.4,5.7,11.5,5.7,11.4,5.7c0.3,0,0.4-0.1,0.6-0.2c0.1,0,0.1-0.1,0.2-0.1c0.1-0.1,0.1-0.3,0.1-0.4c0-0.3,0-0.5-0.1-0.8
				c-0.1-0.3-0.3-0.5-0.6-0.6c-0.1-0.1-0.3-0.2-0.4-0.3c-0.1,0-0.1-0.1-0.2-0.1c-0.2,0.1-0.3,0.2-0.4,0.3c0,0.2,0.2,0.5,0.3,0.7
				c0.2,0.3,0.5,0.6,0.5,1C11.4,5.3,11.4,5.5,11.4,5.7z M10,4c0,0.2,0,0.4,0,0.6c0.1,0.4,0.2,0.7,0.2,1.1c0,0.1-0.1,0.5,0,0.6
				c0.1,0.1,0.5-0.1,0.6-0.2c0.1-0.1,0.3-0.3,0.3-0.4c0,0,0-0.1,0-0.1c0-0.1,0-0.2,0-0.4c0-0.3-0.2-0.6-0.4-0.8
				c-0.1-0.2-0.3-0.5-0.3-0.8C10.2,3.8,10.1,3.9,10,4z M16.6,4.6C16.6,4.6,16.6,4.6,16.6,4.6C16.6,4.6,16.7,4.6,16.6,4.6
				c0.1,0,0.2-0.2,0.3-0.3c0,0,0,0,0,0c0,0,0,0,0,0c0,0,0,0,0,0c0,0,0,0-0.1,0.1C16.7,4.3,16.6,4.4,16.6,4.6L16.6,4.6z M16.4,4.4
				C16.4,4.4,16.4,4.4,16.4,4.4C16.4,4.4,16.5,4.4,16.4,4.4c0.1,0,0.2-0.2,0.3-0.3c0,0,0,0,0,0c0,0,0,0,0,0c0,0,0,0,0,0
				c0,0,0,0-0.1,0.1C16.5,4.1,16.4,4.2,16.4,4.4L16.4,4.4z M16.2,4.2C16.2,4.2,16.2,4.2,16.2,4.2C16.2,4.2,16.2,4.2,16.2,4.2
				c0.1-0.1,0.2-0.2,0.3-0.3c0,0,0,0,0,0c0,0,0,0,0,0c0,0,0,0,0,0c0,0,0,0-0.1,0.1C16.3,3.9,16.2,4.1,16.2,4.2L16.2,4.2z"/>
		</g>
	</g>
	<g>
		<path class="st0" d="M37.7,6.4c-0.2-0.2-0.5-0.2-0.8-0.4c-0.2-0.1-0.3-0.2-0.4-0.3c-0.1-0.1-0.1-0.1-0.2-0.2
			c-0.2-0.2-0.4-0.4-0.6-0.6l0,0c0,0.1,0.1,0.2,0.1,0.3c0.1,0.2,0.1,0.3,0.1,0.5c0,0.1,0,0.2,0.1,0.4c0,0,0,0,0,0c0,0,0,0,0,0
			c0.1,0,0.2,0,0.4,0.1c0.1,0,0.2,0,0.3,0c0.3,0,0.7,0.1,1,0.2C37.6,6.5,37.6,6.5,37.7,6.4C37.7,6.5,37.7,6.5,37.7,6.4z"/>
		<g>
			<path class="st0" d="M39.1,6.7C39.1,6.8,39,6.9,38.9,7c0,0.1-0.1,0.1-0.2,0.2c-0.3,0.4-0.5,0.7-0.8,0.7c-0.3,0.1-0.8-0.1-1.2-0.2
				c-0.1-0.1-0.3-0.1-0.4-0.1c-0.1,0-0.2-0.1-0.3,0c0,0-0.1,0.1-0.1,0.2c-1.4,3.2-0.8,6.8-0.8,10.2c0,0.6,0.1,1.6-0.4,2
				C34.4,20,34.1,20,33.9,20c-0.4,0-0.7,0-1.1,0c-0.3,0-0.6-0.1-0.7-0.4c-0.1-0.2-0.1-0.4-0.1-0.5c0-0.2-0.1-0.4-0.1-0.6
				c-0.1-0.4-0.2-0.8-0.3-1.3c-0.2-0.8-0.4-1.6-0.6-2.5c0-0.1-0.1-0.3-0.1-0.4c0-0.1,0-0.1,0-0.2c0-0.1,0-0.1,0-0.2
				c-0.1,0-0.3,0.1-0.5,0.1C30.2,14,30,14,29.7,14c-0.8,0.1-1.6,0.2-2.4,0.1c-0.2,0-0.3,0-0.5,0c-0.7,0-1.4,0-2-0.4
				c0,0-0.7,2.4-0.8,2.6c-0.2,0.9-0.4,1.8-0.5,2.8c0,0.3-0.1,0.7-0.3,0.8c-0.1,0.1-0.3,0.1-0.4,0.1l-1.5,0c0,0,0,0,0,0
				c-0.1,0-0.4,0-0.5-0.2c-0.1-0.1-0.1-0.1-0.1-0.2l0,0L20.3,12c-0.1-1.5-0.1-3,0.8-4.1c0.6-0.7,1.2-1.2,2-1.4
				c0.4-0.1,0.8-0.1,1.2-0.1l1.9-0.1c1,0,2.1-0.1,2.6-0.8c0.1-0.2,0.3-0.4,0.4-0.6c0.1-0.1,0.1-0.2,0.2-0.3c0.8-1.4,2.4-2.4,4.8-3
				c0.6-0.1,0.8-0.3,1.3-0.7c0.2-0.2,0.4-0.4,0.6-0.5l0.4-0.4L36.5,2c0,0.1,0.1,0.3,0.1,0.5c0.1,0.2,0.2,0.4,0.3,0.6
				c0.2,0.3,0.5,0.6,0.8,0.9C37.8,4,38,4.2,38.1,4.3c0.5,0.5,1,1.1,1.1,2C39.2,6.5,39.2,6.6,39.1,6.7z M37.4,7.4
				c0-0.1,0.1-0.1,0.1-0.2c0.1-0.1,0.1-0.2,0.2-0.3c0,0,0.1-0.2,0.2-0.2c0,0,0,0,0.1,0c0,0,0.1,0.1,0.2,0.1c0,0,0.1-0.1,0.1-0.1
				c0,0,0,0,0,0c0,0,0,0,0,0c0,0-0.2-0.1-0.2-0.1c0,0,0,0,0-0.1c0,0,0,0,0,0c0,0,0,0,0,0c0,0,0,0,0.1,0c0.2,0.1,0.3,0.2,0.5,0.3
				c0,0,0.1-0.1,0.1-0.1c-0.1,0-0.2-0.1-0.2-0.1c-0.1-0.1-0.3-0.1-0.4-0.2c0.1-0.1,0.2-0.2,0.3-0.4c0.1-0.1,0.2-0.3,0.2-0.4
				c0,0,0,0,0,0c0-0.1-0.1-0.1-0.1-0.2c0,0,0,0,0,0c-0.1,0.1-0.2,0.2-0.2,0.3C38.1,5.9,38,6,38,6.1c0,0-0.1,0.1-0.1,0.1
				c0,0,0,0.1-0.1,0.1c0,0,0,0,0,0C37.4,6.1,37,6,36.7,5.7c-0.4-0.3-0.7-0.7-1.1-1c0,0-0.1-0.1-0.1-0.1c0-0.1,0.2-0.2,0.3-0.2
				c0,0,0.1,0,0.1,0c0,0,0,0,0.1,0c0,0,0-0.2-0.1-0.2c-0.1,0-0.2,0.1-0.3,0.1c0,0-0.1,0-0.1,0c0,0,0,0-0.1-0.1c0,0-0.1-0.1,0-0.1
				c0,0,0.1,0,0.1,0c0,0,0.2-0.1,0.2-0.1c0,0,0-0.1,0-0.1c-0.1,0-0.2,0-0.3,0c0,0-0.1,0-0.1,0c0,0-0.1,0-0.1,0c0,0-0.1,0-0.1-0.1
				c-0.1-0.2-0.2-0.3-0.3-0.5c-0.2-0.3-0.4-0.7-0.6-1c0-0.1-0.1-0.1-0.1-0.2c0,0-0.1-0.1-0.1,0c0,0,0,0,0,0.1c0,0.1,0.1,0.1,0.1,0.2
				C34.5,3,34.8,3.4,35,3.9c0,0,0,0.1,0,0.1C35,4,35,4,35,4c0,0-0.1,0-0.1,0c-0.1,0-0.1,0-0.1,0c-0.1,0-0.1,0-0.2,0
				c0,0-0.1-0.1-0.1-0.1c-0.1-0.2-0.2-0.3-0.4-0.4c0,0-0.1-0.1-0.1-0.1c0,0,0-0.1,0-0.1c0,0,0.1,0,0.1,0c0.1,0,0-0.2,0-0.2
				c-0.1-0.2-0.3-0.5-0.4-0.7c0-0.1-0.1-0.1-0.1-0.2c-0.1,0-0.1,0-0.2,0.1c0,0,0,0.1,0,0.1c0,0.1,0.1,0.1,0.1,0.1
				c0.1,0.2,0.2,0.3,0.3,0.5C33.9,3,34,3.1,34,3.2c0,0.1-0.1,0.1-0.1,0.1c0,0,0,0.1,0,0.1c0,0,0,0.1,0.1,0.1
				c0.1,0.1,0.2,0.2,0.3,0.3C34.2,3.9,34.3,4,34.3,4c0,0,0.1,0.1,0.1,0.1c0,0-0.1,0-0.1,0c0,0,0,0,0,0c0,0,0,0,0,0c0,0,0,0.1,0,0.1
				c0,0,0,0,0,0c0,0,0,0,0,0c0.3,0,0.5-0.1,0.7-0.1c0,0,0,0,0,0c0,0,0,0,0,0c0,0,0,0.1,0,0.1c0,0-0.1,0-0.1,0c-0.1,0-0.2,0-0.3,0
				c-0.1,0-0.2,0-0.4,0c0,0-0.1,0-0.1,0c0,0,0,0,0,0.1c0,0,0,0.1,0,0.1c0,0,0,0,0,0c0,0,0,0,0,0c0.1,0,0.2,0,0.4,0
				c0.2,0,0.3,0,0.5,0c0,0,0.1,0,0.1,0c0,0,0,0,0.1,0.1c0.1,0.2,0.2,0.5,0.3,0.7c0,0.1,0.1,0.3,0.1,0.4c0,0.1,0,0.2,0,0.3
				c0,0,0,0,0,0c0,0,0,0,0,0c-0.6,0.1-1.2,0.5-1.7,0.7c-0.3,0.1-0.6,0.3-0.9,0.3c-0.4,0.1-0.7,0-1.1,0c-0.1,0-0.2,0-0.3-0.1
				C31.7,7.2,31.6,7,31.7,7c0.1-0.1,0.3-0.1,0.4,0c0.1,0,0.2,0,0.3,0c0.1,0,0.1-0.1,0.1-0.2c0,0,0-0.1,0-0.1c0,0,0,0,0,0
				c0,0,0.1,0,0.1,0c0.2,0,0.3,0.1,0.5,0.1c0,0,0.1,0,0.1,0c0.1,0,0.1-0.1,0.1-0.2c0-0.1,0-0.2-0.1-0.2c-0.1-0.1-0.2-0.1-0.3-0.1
				c0,0-0.1,0-0.1,0.1c0,0.1,0.2,0.2,0.2,0.3c-0.1,0-0.3,0-0.4-0.1c0,0-0.1,0-0.1,0c-0.1,0-0.2,0-0.2,0.1c0,0.1,0,0.2,0,0.2
				c-0.1,0-0.3,0-0.4,0s-0.3,0-0.4,0.1c-0.1,0.1-0.2,0.2-0.1,0.4c-0.2,0-0.4-0.1-0.6-0.1c-0.2-0.1-0.3-0.1-0.5-0.2
				c-0.1,0-0.2-0.1-0.3-0.2c0,0-0.1-0.1-0.1-0.2c0-0.1,0.1-0.1,0.2-0.1c0.1,0,0.2,0,0.3,0c0,0,0,0,0.1,0c0,0,0-0.1,0-0.1
				c0,0,0,0-0.1-0.1C30,6,29.9,5.9,29.8,5.8c0,0-0.1,0-0.1-0.1c0-0.1,0-0.1,0-0.1c0,0,0.1,0,0.1,0c0,0,0,0,0,0c0,0,0,0,0,0
				c0-0.1-0.1-0.1-0.2-0.2c-0.1,0-0.1,0-0.2,0c0,0-0.1,0-0.1-0.1c0,0,0,0.1-0.1,0.1c0.1,0,0.2,0.1,0.2,0.1c0,0-0.1,0.1-0.1,0.1
				c0,0,0,0-0.1,0.1c0,0,0,0.1,0,0.1c0,0,0,0,0.1,0.1c0.1,0.1,0.2,0.1,0.2,0.1c0.1,0.1,0.1,0.1,0.2,0.2c0,0,0,0,0,0c0,0,0,0,0,0
				c-0.1,0-0.4,0.1-0.4,0.2c0,0.1,0,0.2,0.1,0.3c0.1,0.1,0.2,0.1,0.2,0.1c0.1,0,0.1,0.1,0.2,0.1c0.2,0.1,0.3,0.2,0.5,0.3
				c0.2,0.1,0.4,0.2,0.6,0.2c0.3,0.1,0.5,0.2,0.8,0.2c0.1,0,0.3,0.1,0.4,0.1c0.1,0,0.2,0.1,0.3,0.1c0.1,0,0.3,0.1,0.4,0.1
				c0.6,0.1,1.3-0.1,1.8-0.5C35,7.2,35.2,7,35.4,6.7c0.1-0.1,0.1-0.1,0.2-0.2c0.1-0.1,0.3,0,0.4,0c0.2,0,0.3,0,0.5,0
				c0.2,0,0.4,0,0.6,0c0.1,0,0.2,0,0.3,0.1c0.1,0,0.2,0.1,0.1,0.2c-0.1,0.1-0.1,0.2-0.2,0.3c-0.1,0.1-0.1,0.2-0.2,0.3
				C37.3,7.4,37.3,7.4,37.4,7.4z M27,12.6c-0.1,0.1-0.2,0.3-0.2,0.4c0,0.2,0.1,0.4,0.3,0.5c0.2,0.2,0.5,0.1,0.7,0.1
				c0.1,0,0.1,0,0.2,0c0.2,0,0.5-0.2,0.5-0.5c0-0.2-0.1-0.4-0.2-0.5c-0.1-0.1-0.3-0.1-0.5-0.1c0.1-0.2,0.1-0.4,0.1-0.5
				c0-0.1,0-0.2-0.1-0.2c-0.1-0.1-0.2-0.1-0.3-0.1c-0.2,0-0.3,0-0.5,0c0,0,0-0.1,0-0.1l0,0c0-0.1,0.1-0.2,0.2-0.2
				c0.1,0,0.2-0.1,0.2-0.2c-0.3-0.1-0.6-0.1-0.8,0c-0.2,0.1-0.4,0.4-0.5,0.7c0,0.2,0.1,0.5,0.3,0.5c0.2,0,0.4-0.2,0.6-0.1
				C27.2,12.5,27,12.6,27,12.6z M34.8,10c0-0.1,0-0.2,0-0.3c0-0.1,0-0.1,0-0.2c0-0.1,0-0.1-0.1-0.1c0,0-0.1-0.1-0.1-0.1
				c-0.1-0.1-0.2-0.2-0.3-0.3c-0.2-0.2-0.5-0.4-0.8-0.4c-0.2,0-0.4,0-0.6,0c-0.1,0-0.2,0.1-0.3,0.1c-0.1,0-0.2-0.2-0.3-0.3
				c-0.1-0.1-0.1-0.1-0.2-0.2c-0.2-0.1-0.4-0.2-0.6-0.2c-0.2,0-0.3,0.1-0.4,0.2c-0.2,0.1-0.2,0-0.3-0.2c0-0.1-0.1-0.1-0.1-0.2
				c-0.1-0.1-0.2-0.2-0.3-0.2c-0.1-0.1-0.3-0.1-0.4-0.1c-0.1,0-0.3,0-0.4,0.1c-0.1,0.1-0.2,0.2-0.3,0.2c-0.1,0-0.1-0.1-0.1-0.1
				c-0.1-0.2-0.1-0.4-0.2-0.6c-0.2-0.2-0.4-0.2-0.7-0.2c0,0-0.1,0-0.1,0c0,0,0,0-0.1-0.1c-0.1-0.1-0.2-0.2-0.3-0.3
				c-0.1,0-0.1-0.1-0.2-0.1c-0.1,0-0.2,0-0.3,0.1c0,0-0.2,0.1-0.2,0.1c0.1,0.1,0.2,0.2,0.3,0.3c0.1,0.1,0.3,0.3,0.4,0.5
				c0.2,0.4,0.2,0.9,0,1.3C28,9,27.6,9.2,27.3,9.2c-0.3,0-0.2,0.1-0.2,0.3c0,0.3,0,0.5-0.1,0.8c-0.1,0.3-0.4,0.5-0.7,0.6
				c-0.3,0.1-0.6,0.1-0.9,0c-0.1,0-0.2-0.1-0.3-0.1c-0.2-0.1-0.4-0.4-0.4-0.6c0-0.1-0.2-0.8-0.2-0.7c-0.3,0.1-0.6,0.1-0.9,0.1
				c-0.4,0-0.8-0.1-1.1-0.4c-0.2-0.2-0.4-0.4-0.5-0.6C22,8.3,21.9,8.2,21.9,8c0-0.1-0.1-0.2-0.1-0.3c-0.1,0.1-0.2,0.3-0.4,0.4
				c0,0.1-0.1,0.1-0.2,0.2c0,0.1,0.1,0.2,0.1,0.3c0.1,0.2,0.2,0.4,0.3,0.6c0.1,0.2,0.3,0.4,0.5,0.6c0.2,0.2,0.5,0.2,0.8,0.3
				c0.3,0.1,0.7,0,1.1,0c-0.1,0.4,0.1,0.7,0.3,1c0.1,0.1,0.3,0.2,0.3,0.3c0.1,0.1,0,0.2-0.1,0.4c0,0.1,0,0.3,0.1,0.4
				c0,0.1,0.1,0.2,0.2,0.3c0.1,0.1,0.2,0.1,0.3,0.2c0.1,0.1,0.1,0.2,0,0.3c0,0.2,0,0.3,0.1,0.5c0,0,0,0,0,0.1c0,0,0.2,0,0.3,0.1
				c0.1,0,0.2,0,0.3,0c0.2,0,0.4,0.1,0.6,0c-0.2-0.1-0.3-0.2-0.4-0.3c-0.1-0.1-0.2-0.2-0.2-0.3c0-0.1,0-0.3,0.1-0.3
				c-0.4-0.1-0.8-0.2-0.9-0.7c0-0.1,0-0.1,0-0.2c0-0.1,0-0.2,0-0.4c0-0.1,0.1-0.2,0.2-0.3c0.1-0.1,0.3,0,0.5,0
				c0.2,0,0.4-0.1,0.6-0.2c0.2-0.1,0.3-0.2,0.5-0.3c0.2-0.1,0.3-0.3,0.5-0.3c0.2,0,0.4,0.2,0.4,0.4c0.1,0.2,0,0.5,0,0.7
				c0,0,0,0,0,0.1c0,0,0.1,0,0.1,0c0.6,0.1,0.7,0.8,0.6,1.2c0.1,0.1,0.2,0.2,0.2,0.4c0,0.2,0,0.3-0.1,0.4c0,0,0.3,0,0.3,0
				c0.1,0,0.2,0,0.3-0.1c0.1,0,0.2,0,0.2-0.1c0-0.1,0-0.2,0-0.3c-0.1-0.2-0.4-0.3-0.4-0.5c0,0,0-0.1,0-0.1c0-0.2,0-0.3,0-0.5
				c-0.1-0.1-0.1-0.3-0.2-0.4c-0.1-0.1-0.2-0.1-0.3-0.2c-0.1,0-0.2,0-0.1-0.2c0-0.2,0-0.3,0-0.5c0-0.1-0.1-0.3-0.1-0.4
				c0-0.1,0.5-0.2,0.6-0.2c0.2,0,0.2,0.1,0.2,0.3c0.1,0.2,0.3,0.4,0.5,0.5c0.3,0.1,0.6,0.1,1,0c0.2-0.1,0.3-0.2,0.4,0
				c0.1,0.2,0.1,0.4,0.3,0.5c0.1,0.1,0.2,0.1,0.2,0.1c0.3,0.1,0.7-0.1,0.9-0.3c0.2-0.1,0.2,0.2,0.3,0.3c0.1,0.2,0.3,0.4,0.5,0.4
				c0.1,0,0.2,0,0.3,0c0.2,0,0.3,0,0.5,0c0.2,0,0.4-0.1,0.5-0.3c0.1-0.1,0-0.3,0-0.5c-0.1,0.1-0.2,0.1-0.4,0.2c-0.2,0-0.3,0-0.5,0
				c-0.2,0-0.4-0.1-0.6-0.2c-0.1-0.1-0.2-0.2-0.2-0.4c0-0.1-0.1-0.1-0.2,0c-0.1,0-0.1,0.1-0.2,0.1c-0.2,0.2-0.5,0.3-0.8,0.2
				c-0.1,0-0.1,0-0.2,0c-0.1,0-0.1-0.1-0.2-0.2c0-0.1-0.1-0.1-0.1-0.2c0-0.1-0.1-0.2-0.1-0.3c0,0-0.1-0.2-0.1-0.2
				c-0.1,0-0.2,0.1-0.2,0.1c-0.1,0-0.2,0.1-0.2,0.1c-0.3,0.1-0.7,0.1-0.9-0.2c-0.2-0.2-0.2-0.5-0.3-0.8c0,0,0,0,0,0
				c-0.1,0-0.5,0.2-0.6,0.2c-0.2,0-0.6,0-0.7-0.2c-0.1-0.2,0.2-0.5,0.3-0.7c0.2-0.4,0.3-0.8,0.2-1.2c0-0.5,0.5,0,0.6,0.1
				c0.1,0.1,0.2,0.2,0.2,0.4c0,0.1,0,0.1,0.1,0.2c0,0,0,0.1,0,0.1c0,0,0.1-0.1,0.1-0.1c0.1,0,0.1-0.1,0.2-0.1c0.1,0,0.3-0.1,0.4-0.1
				c0.1,0,0.1,0,0.2,0c0.1,0,0.1,0.1,0.2,0.1c0.1,0.1,0.2,0.2,0.3,0.4c0,0.1,0,0.2,0.1,0.2c0,0.1,0.2,0,0.2-0.1
				c0.1,0,0.1-0.1,0.2-0.1c0.1,0,0.2,0,0.3,0c0.1,0,0.2,0,0.3,0c0.2,0,0.5,0.2,0.6,0.4c0,0.1,0,0.1,0.1,0.2c0,0.1,0.1,0.1,0.1,0
				c0.3-0.2,0.7-0.3,1-0.2c0.2,0.1,0.3,0.1,0.4,0.2c0.2,0.1,0.3,0.3,0.4,0.5C34.7,9.9,34.8,10,34.8,10C34.8,10.1,34.8,10.1,34.8,10
				C34.8,10.1,34.8,10.1,34.8,10C34.8,10,34.8,10,34.8,10z M33.1,10.6c0,0.1,0,0.2,0.1,0.3c0.1,0.2,0.5,0.3,0.7,0.2
				c0.1,0,0.1-0.1,0.2-0.2c0.1-0.1,0.1-0.2,0.2-0.2c0,0,0,0,0-0.1c0,0,0,0,0.1,0c0.1,0.1,0,0.2,0.1,0.3c0,0.1,0.1,0.2,0.1,0.3
				c0,0,0,0,0.1,0c0,0,0,0,0,0c0.1-0.1,0.1-0.2,0.1-0.4c0-0.2,0-0.5-0.1-0.7c-0.1-0.2-0.2-0.4-0.4-0.5c-0.2-0.1-0.5-0.1-0.7-0.1
				c-0.1,0-0.2,0.1-0.3,0.2c-0.1,0.1-0.3,0.3-0.4,0.3c0,0,0,0,0,0c-0.1,0-0.1-0.1-0.1-0.1c0-0.1-0.1-0.2-0.2-0.3
				c0-0.1-0.1-0.1-0.1-0.2c-0.3-0.3-0.9,0-1.2,0.2c0,0,0,0,0,0c0,0,0,0,0,0c0-0.1-0.1-0.2-0.1-0.4c-0.1-0.2-0.3-0.3-0.4-0.3
				c-0.2,0-0.3,0.2-0.5,0.2c0,0,0-0.1,0-0.1c0-0.1,0-0.3-0.2-0.2c-0.1,0-0.1,0.1-0.1,0.2c0,0.3,0,0.6,0.1,0.9
				c0.1,0.2,0.2,0.3,0.4,0.4c0.2,0.1,0.4,0.1,0.5,0c0.1,0,0.2-0.1,0.3-0.1c0.1-0.1,0.2-0.2,0.3-0.1c0.1,0.1,0.1,0.3,0.2,0.5
				c0,0.1,0.1,0.1,0.1,0.2c0.2,0.1,0.4,0.2,0.6,0.2c0.2,0,0.4-0.1,0.6-0.2c0,0,0.1-0.1,0.2-0.1c0.1,0,0.1,0,0.1,0
				C33.1,10.5,33.1,10.6,33.1,10.6z M20.7,11.9c0.1-0.1,0.2-0.3,0.2-0.5c0.1-0.2,0.1-0.5,0.1-0.8c0-0.6,0-1.3,0-1.9c0,0,0,0,0,0
				C20.7,9.6,20.7,10.7,20.7,11.9z M26.4,9.4c0-0.1,0-0.1,0-0.2c0-0.1-0.2-0.2-0.3-0.1c-0.1,0-0.2,0.1-0.3,0.1
				c-0.3,0-0.5-0.1-0.6-0.4C25.1,8.6,25,8.3,25,8.1c0-0.4-0.1-0.8-0.1-1.2c0,0,0,0,0-0.1l-0.2,0c0,0,0,0,0,0c0,0.2,0,0.5,0,0.7
				c0,0.3,0.1,0.6,0.1,0.8c0,0.2,0.1,0.5,0.3,0.7c0.1,0.1,0.1,0.1,0.2,0.2c0,0.1,0,0.2,0,0.3c0,0.2,0,0.3,0.1,0.5
				c0,0,0.1,0.1,0.1,0.1c0,0,0.1,0,0.1,0c0.1,0,0.3,0,0.4,0c0.1,0,0.3-0.1,0.4-0.2C26.5,9.8,26.4,9.6,26.4,9.4z M24.6,6.8l-0.3,0
				c-0.1,0-0.2,0-0.3,0c-0.3,0.1-0.3,0.3-0.5,0.6c-0.1,0.2-0.3,0.4-0.5,0.7c-0.1,0.1-0.1,0.2-0.3,0.2c-0.1,0-0.3,0.1-0.4,0.1
				c-0.1,0-0.2,0-0.2,0c0,0,0,0,0,0c0.1,0.1,0.3,0.1,0.4,0.2c0.2,0.1,0.4,0.1,0.6,0.2c0.4,0.1,0.8,0.1,1.2-0.1
				c0.1,0,0.1-0.1,0.2-0.2c0-0.1,0.1-0.2,0.1-0.3c0-0.2,0-0.5,0-0.7C24.6,7.2,24.6,7.1,24.6,6.8z M22.2,7.6
				C22.3,7.6,22.3,7.7,22.2,7.6c0.1,0.1,0.1,0.1,0.2,0.1c0,0,0,0,0.1,0c0.1,0,0.2,0,0.3-0.1c0.2-0.1,0.3-0.2,0.4-0.3
				c0,0,0.1-0.1,0.1-0.1c-0.1,0-0.3,0-0.4,0c0,0-0.1,0-0.1,0.1c0,0-0.1,0-0.1,0c-0.2,0.1-0.2,0.1-0.4,0.1
				C22.3,7.5,22.2,7.5,22.2,7.6z M26.8,8.8c0.4-0.1,0.8-0.2,1.2-0.2c0-0.1-0.2-0.2-0.4-0.2c-0.1,0-0.2-0.1-0.4-0.2
				c-0.2-0.2-0.5-0.4-0.7-0.5c-0.1,0-0.1-0.1-0.1-0.1c0,0-0.1-0.1-0.1-0.1c-0.2-0.3-0.5-0.5-0.8-0.6l-0.5,0c0,0,0,0,0,0l0,0l0,0
				c0.1,0.3,0,0.6,0,0.9c0.1,0.2,0.2,0.5,0.4,0.7c0.1,0.1,0.2,0.2,0.2,0.3C26,8.9,26.4,8.9,26.8,8.8z M27.5,6.9c0,0-0.1,0-0.1,0
				c-0.2,0-0.3,0-0.5,0l0,0c-0.1,0-0.2,0-0.4,0c-0.1,0-0.2,0-0.3,0.1c0,0,0,0,0,0c0,0,0,0.1,0.1,0.1c0.1,0,0.2,0,0.2,0
				c0.1,0,0.3,0,0.5,0c0.2,0,0.3-0.1,0.5-0.1c0,0,0.1,0,0.1-0.1C27.6,7,27.5,6.9,27.5,6.9z M31.6,3C31.6,3,31.6,3.1,31.6,3
				c0.2,0.2,0.5,0.3,0.7,0.5c0.1,0.1,0.3,0.2,0.3,0.4c0.1,0.1,0.1,0.3,0.2,0.5c0,0.2,0.1,0.4,0.1,0.6c0.1,0,0.2,0,0.2-0.1
				c0.2-0.2,0.2-0.5,0.2-0.7c0-0.2,0-0.3,0-0.5c0-0.2,0-0.3-0.1-0.5c0-0.1-0.1-0.2-0.1-0.3C33,2.8,33,2.7,32.9,2.6
				c0,0,0-0.1-0.1-0.1C32.4,2.6,31.9,2.8,31.6,3z M34.3,5.5c-0.1,0.1-0.1,0.1-0.2,0.1c-0.3,0-0.6,0.1-0.9,0c0,0-0.1,0-0.1,0
				c0,0,0,0,0,0c0,0,0.1,0.1,0.1,0.1c0.4,0.1,0.8,0.1,1.2-0.1c0,0,0.1,0,0.1-0.1c0,0,0.1-0.1,0-0.2c0-0.2-0.2-0.4-0.3-0.6
				c-0.2-0.1-0.4-0.2-0.6-0.4c0,0-0.1,0-0.1-0.1c0,0,0-0.1,0-0.1c0-0.1,0.1-0.1,0.2-0.1l0,0c-0.1,0-0.1-0.1-0.2-0.1c0,0-0.1,0-0.1,0
				c-0.1,0.1,0,0.2,0,0.3c0.1,0.2,0.3,0.4,0.5,0.5c0.1,0,0.1,0.1,0.2,0.1c0.1,0,0.1,0.1,0.1,0.2C34.5,5.3,34.4,5.4,34.3,5.5z
				 M31.7,5.7C31.7,5.7,31.7,5.7,31.7,5.7C31.7,5.7,31.7,5.7,31.7,5.7c0.3,0,0.4-0.1,0.6-0.2c0.1,0,0.1-0.1,0.2-0.1
				c0.1-0.1,0.1-0.3,0.1-0.4c0-0.3,0-0.5-0.1-0.8c-0.1-0.3-0.3-0.5-0.6-0.6c-0.1-0.1-0.3-0.2-0.4-0.3c-0.1,0-0.1-0.1-0.2-0.1
				c-0.2,0.1-0.3,0.2-0.4,0.3c0,0.2,0.2,0.5,0.3,0.7c0.2,0.3,0.5,0.6,0.5,1C31.7,5.3,31.7,5.5,31.7,5.7z M30.3,4c0,0.2,0,0.4,0,0.6
				c0.1,0.4,0.2,0.7,0.2,1.1c0,0.1-0.1,0.5,0,0.6c0.1,0.1,0.5-0.1,0.6-0.2c0.1-0.1,0.3-0.3,0.3-0.4c0,0,0-0.1,0-0.1
				c0-0.1,0-0.2,0-0.4c0-0.3-0.2-0.6-0.4-0.8c-0.1-0.2-0.3-0.5-0.3-0.8C30.5,3.8,30.4,3.9,30.3,4z M36.9,4.6
				C36.9,4.6,36.9,4.6,36.9,4.6C36.9,4.6,37,4.6,36.9,4.6c0.1,0,0.2-0.2,0.3-0.3c0,0,0,0,0,0c0,0,0,0,0,0c0,0,0,0,0,0
				c0,0,0,0-0.1,0.1C37,4.3,36.9,4.4,36.9,4.6L36.9,4.6z M36.7,4.4C36.7,4.4,36.7,4.4,36.7,4.4C36.7,4.4,36.7,4.4,36.7,4.4
				c0.1,0,0.2-0.2,0.3-0.3c0,0,0,0,0,0c0,0,0,0,0,0c0,0,0,0,0,0c0,0,0,0-0.1,0.1C36.8,4.1,36.7,4.2,36.7,4.4L36.7,4.4z M36.5,4.2
				C36.5,4.2,36.5,4.2,36.5,4.2C36.5,4.2,36.5,4.2,36.5,4.2c0.1-0.1,0.2-0.2,0.3-0.3c0,0,0,0,0,0c0,0,0,0,0,0c0,0,0,0,0,0
				c0,0,0,0-0.1,0.1C36.6,3.9,36.5,4.1,36.5,4.2L36.5,4.2z"/>
		</g>
	</g>
	<g>
		<path class="st0" d="M58,6.4c-0.2-0.2-0.5-0.2-0.8-0.4c-0.2-0.1-0.3-0.2-0.4-0.3c-0.1-0.1-0.1-0.1-0.2-0.2
			c-0.2-0.2-0.4-0.4-0.6-0.6l0,0C56,5,56,5.2,56,5.3c0.1,0.2,0.1,0.3,0.1,0.5c0,0.1,0,0.2,0.1,0.4c0,0,0,0,0,0c0,0,0,0,0,0
			c0.1,0,0.2,0,0.4,0.1c0.1,0,0.2,0,0.3,0c0.3,0,0.7,0.1,1,0.2C57.9,6.5,57.9,6.5,58,6.4C58,6.5,58,6.5,58,6.4z"/>
		<g>
			<path class="st0" d="M59.4,6.7c-0.1,0.1-0.1,0.2-0.2,0.3c0,0.1-0.1,0.1-0.2,0.2c-0.3,0.4-0.5,0.7-0.8,0.7C57.9,8,57.4,7.9,57,7.7
				c-0.1-0.1-0.3-0.1-0.4-0.1c-0.1,0-0.2-0.1-0.3,0c0,0-0.1,0.1-0.1,0.2c-1.4,3.2-0.8,6.8-0.8,10.2c0,0.6,0.1,1.6-0.4,2
				C54.7,20,54.4,20,54.2,20c-0.4,0-0.7,0-1.1,0c-0.3,0-0.6-0.1-0.7-0.4c-0.1-0.2-0.1-0.4-0.1-0.5c0-0.2-0.1-0.4-0.1-0.6
				c-0.1-0.4-0.2-0.8-0.3-1.3c-0.2-0.8-0.4-1.6-0.6-2.5c0-0.1-0.1-0.3-0.1-0.4c0-0.1,0-0.1,0-0.2c0-0.1,0-0.1,0-0.2
				c-0.1,0-0.3,0.1-0.5,0.1C50.5,14,50.3,14,50,14c-0.8,0.1-1.6,0.2-2.4,0.1c-0.2,0-0.3,0-0.5,0c-0.7,0-1.4,0-2-0.4
				c0,0-0.7,2.4-0.8,2.6c-0.2,0.9-0.4,1.8-0.5,2.8c0,0.3-0.1,0.7-0.3,0.8c-0.1,0.1-0.3,0.1-0.4,0.1l-1.5,0c0,0,0,0,0,0
				c-0.1,0-0.4,0-0.5-0.2C41,19.8,41,19.8,41,19.7l0,0L40.6,12c-0.1-1.5-0.1-3,0.8-4.1c0.6-0.7,1.2-1.2,2-1.4
				c0.4-0.1,0.8-0.1,1.2-0.1l1.9-0.1c1,0,2.1-0.1,2.6-0.8c0.1-0.2,0.3-0.4,0.4-0.6c0.1-0.1,0.1-0.2,0.2-0.3c0.8-1.4,2.4-2.4,4.8-3
				c0.6-0.1,0.8-0.3,1.3-0.7c0.2-0.2,0.4-0.4,0.6-0.5l0.4-0.4L56.8,2c0,0.1,0.1,0.3,0.1,0.5C56.9,2.7,57,2.9,57.2,3
				c0.2,0.3,0.5,0.6,0.8,0.9c0.1,0.1,0.3,0.3,0.4,0.4c0.5,0.5,1,1.1,1.1,2C59.5,6.5,59.5,6.6,59.4,6.7z M57.7,7.4
				c0-0.1,0.1-0.1,0.1-0.2C57.9,7.1,57.9,7,58,6.9c0,0,0.1-0.2,0.2-0.2c0,0,0,0,0.1,0c0,0,0.1,0.1,0.2,0.1c0,0,0.1-0.1,0.1-0.1
				c0,0,0,0,0,0c0,0,0,0,0,0c0,0-0.2-0.1-0.2-0.1c0,0,0,0,0-0.1c0,0,0,0,0,0c0,0,0,0,0,0c0,0,0,0,0.1,0c0.2,0.1,0.3,0.2,0.5,0.3
				c0,0,0.1-0.1,0.1-0.1c-0.1,0-0.2-0.1-0.2-0.1c-0.1-0.1-0.3-0.1-0.4-0.2c0.1-0.1,0.2-0.2,0.3-0.4c0.1-0.1,0.2-0.3,0.2-0.4
				c0,0,0,0,0,0c0-0.1-0.1-0.1-0.1-0.2c0,0,0,0,0,0c-0.1,0.1-0.2,0.2-0.2,0.3c-0.1,0.1-0.1,0.2-0.2,0.3c0,0-0.1,0.1-0.1,0.1
				c0,0,0,0.1-0.1,0.1c0,0,0,0,0,0C57.7,6.1,57.3,6,57,5.7c-0.4-0.3-0.7-0.7-1.1-1c0,0-0.1-0.1-0.1-0.1c0-0.1,0.2-0.2,0.3-0.2
				c0,0,0.1,0,0.1,0c0,0,0,0,0.1,0c0,0,0-0.2-0.1-0.2c-0.1,0-0.2,0.1-0.3,0.1c0,0-0.1,0-0.1,0c0,0,0,0-0.1-0.1c0,0-0.1-0.1,0-0.1
				c0,0,0.1,0,0.1,0c0,0,0.2-0.1,0.2-0.1c0,0,0-0.1,0-0.1c-0.1,0-0.2,0-0.3,0c0,0-0.1,0-0.1,0c0,0-0.1,0-0.1,0c0,0-0.1,0-0.1-0.1
				c-0.1-0.2-0.2-0.3-0.3-0.5c-0.2-0.3-0.4-0.7-0.6-1c0-0.1-0.1-0.1-0.1-0.2c0,0-0.1-0.1-0.1,0c0,0,0,0,0,0.1c0,0.1,0.1,0.1,0.1,0.2
				c0.3,0.4,0.5,0.9,0.8,1.3c0,0,0,0.1,0,0.1c0,0,0,0.1,0,0.1c0,0-0.1,0-0.1,0c-0.1,0-0.1,0-0.1,0c-0.1,0-0.1,0-0.2,0
				c0,0-0.1-0.1-0.1-0.1c-0.1-0.2-0.2-0.3-0.4-0.4c0,0-0.1-0.1-0.1-0.1c0,0,0-0.1,0-0.1c0,0,0.1,0,0.1,0c0.1,0,0-0.2,0-0.2
				c-0.1-0.2-0.3-0.5-0.4-0.7c0-0.1-0.1-0.1-0.1-0.2c-0.1,0-0.1,0-0.2,0.1c0,0,0,0.1,0,0.1c0,0.1,0.1,0.1,0.1,0.1
				C54,2.6,54.1,2.8,54.2,3c0,0.1,0.1,0.2,0.1,0.2c0,0.1-0.1,0.1-0.1,0.1c0,0,0,0.1,0,0.1c0,0,0,0.1,0.1,0.1
				c0.1,0.1,0.2,0.2,0.3,0.3C54.5,3.9,54.6,4,54.6,4c0,0,0.1,0.1,0.1,0.1c0,0-0.1,0-0.1,0c0,0,0,0,0,0c0,0,0,0,0,0c0,0,0,0.1,0,0.1
				c0,0,0,0,0,0c0,0,0,0,0,0c0.3,0,0.5-0.1,0.7-0.1c0,0,0,0,0,0c0,0,0,0,0,0c0,0,0,0.1,0,0.1c0,0-0.1,0-0.1,0c-0.1,0-0.2,0-0.3,0
				c-0.1,0-0.2,0-0.4,0c0,0-0.1,0-0.1,0c0,0,0,0,0,0.1c0,0,0,0.1,0,0.1c0,0,0,0,0,0c0,0,0,0,0,0c0.1,0,0.2,0,0.4,0
				c0.2,0,0.3,0,0.5,0c0,0,0.1,0,0.1,0c0,0,0,0,0.1,0.1c0.1,0.2,0.2,0.5,0.3,0.7C56,5.6,56,5.7,56,5.8c0,0.1,0,0.2,0,0.3
				c0,0,0,0,0,0c0,0,0,0,0,0c-0.6,0.1-1.2,0.5-1.7,0.7c-0.3,0.1-0.6,0.3-0.9,0.3c-0.4,0.1-0.7,0-1.1,0c-0.1,0-0.2,0-0.3-0.1
				C51.9,7.2,51.9,7,52,7c0.1-0.1,0.3-0.1,0.4,0c0.1,0,0.2,0,0.3,0c0.1,0,0.1-0.1,0.1-0.2c0,0,0-0.1,0-0.1c0,0,0,0,0,0
				c0,0,0.1,0,0.1,0c0.2,0,0.3,0.1,0.5,0.1c0,0,0.1,0,0.1,0c0.1,0,0.1-0.1,0.1-0.2c0-0.1,0-0.2-0.1-0.2c-0.1-0.1-0.2-0.1-0.3-0.1
				c0,0-0.1,0-0.1,0.1c0,0.1,0.2,0.2,0.2,0.3c-0.1,0-0.3,0-0.4-0.1c0,0-0.1,0-0.1,0c-0.1,0-0.2,0-0.2,0.1c0,0.1,0,0.2,0,0.2
				c-0.1,0-0.3,0-0.4,0c-0.1,0-0.3,0-0.4,0.1c-0.1,0.1-0.2,0.2-0.1,0.4c-0.2,0-0.4-0.1-0.6-0.1c-0.2-0.1-0.3-0.1-0.5-0.2
				c-0.1,0-0.2-0.1-0.3-0.2c0,0-0.1-0.1-0.1-0.2c0-0.1,0.1-0.1,0.2-0.1c0.1,0,0.2,0,0.3,0c0,0,0,0,0.1,0c0,0,0-0.1,0-0.1
				c0,0,0,0-0.1-0.1c-0.1-0.1-0.3-0.1-0.4-0.2c0,0-0.1,0-0.1-0.1c0-0.1,0-0.1,0-0.1c0,0,0.1,0,0.1,0c0,0,0,0,0,0c0,0,0,0,0,0
				c0-0.1-0.1-0.1-0.2-0.2c-0.1,0-0.1,0-0.2,0c0,0-0.1,0-0.1-0.1c0,0,0,0.1-0.1,0.1c0.1,0,0.2,0.1,0.2,0.1c0,0-0.1,0.1-0.1,0.1
				c0,0,0,0-0.1,0.1c0,0,0,0.1,0,0.1c0,0,0,0,0.1,0.1C49.8,5.9,49.9,5.9,50,6c0.1,0.1,0.1,0.1,0.2,0.2c0,0,0,0,0,0c0,0,0,0,0,0
				c-0.1,0-0.4,0.1-0.4,0.2c0,0.1,0,0.2,0.1,0.3c0.1,0.1,0.2,0.1,0.2,0.1c0.1,0,0.1,0.1,0.2,0.1c0.2,0.1,0.3,0.2,0.5,0.3
				c0.2,0.1,0.4,0.2,0.6,0.2c0.3,0.1,0.5,0.2,0.8,0.2c0.1,0,0.3,0.1,0.4,0.1c0.1,0,0.2,0.1,0.3,0.1c0.1,0,0.3,0.1,0.4,0.1
				c0.6,0.1,1.3-0.1,1.8-0.5c0.2-0.2,0.4-0.4,0.6-0.7c0.1-0.1,0.1-0.1,0.2-0.2c0.1-0.1,0.3,0,0.4,0c0.2,0,0.3,0,0.5,0
				c0.2,0,0.4,0,0.6,0c0.1,0,0.2,0,0.3,0.1c0.1,0,0.2,0.1,0.1,0.2c-0.1,0.1-0.1,0.2-0.2,0.3c-0.1,0.1-0.1,0.2-0.2,0.3
				C57.5,7.4,57.6,7.4,57.7,7.4z M47.3,12.6c-0.1,0.1-0.2,0.3-0.2,0.4c0,0.2,0.1,0.4,0.3,0.5c0.2,0.2,0.5,0.1,0.7,0.1
				c0.1,0,0.1,0,0.2,0c0.2,0,0.5-0.2,0.5-0.5c0-0.2-0.1-0.4-0.2-0.5c-0.1-0.1-0.3-0.1-0.5-0.1c0.1-0.2,0.1-0.4,0.1-0.5
				c0-0.1,0-0.2-0.1-0.2c-0.1-0.1-0.2-0.1-0.3-0.1c-0.2,0-0.3,0-0.5,0c0,0,0-0.1,0-0.1l0,0c0-0.1,0.1-0.2,0.2-0.2
				c0.1,0,0.2-0.1,0.2-0.2c-0.3-0.1-0.6-0.1-0.8,0c-0.2,0.1-0.4,0.4-0.5,0.7c0,0.2,0.1,0.5,0.3,0.5c0.2,0,0.4-0.2,0.6-0.1
				C47.5,12.5,47.3,12.6,47.3,12.6z M55.1,10c0-0.1,0-0.2,0-0.3c0-0.1,0-0.1,0-0.2c0-0.1,0-0.1-0.1-0.1c0,0-0.1-0.1-0.1-0.1
				C55,9.2,54.9,9.1,54.8,9c-0.2-0.2-0.5-0.4-0.8-0.4c-0.2,0-0.4,0-0.6,0c-0.1,0-0.2,0.1-0.3,0.1c-0.1,0-0.2-0.2-0.3-0.3
				c-0.1-0.1-0.1-0.1-0.2-0.2c-0.2-0.1-0.4-0.2-0.6-0.2c-0.2,0-0.3,0.1-0.4,0.2c-0.2,0.1-0.2,0-0.3-0.2c0-0.1-0.1-0.1-0.1-0.2
				c-0.1-0.1-0.2-0.2-0.3-0.2c-0.1-0.1-0.3-0.1-0.4-0.1c-0.1,0-0.3,0-0.4,0.1c-0.1,0.1-0.2,0.2-0.3,0.2c-0.1,0-0.1-0.1-0.1-0.1
				c-0.1-0.2-0.1-0.4-0.2-0.6c-0.2-0.2-0.4-0.2-0.7-0.2c0,0-0.1,0-0.1,0c0,0,0,0-0.1-0.1c-0.1-0.1-0.2-0.2-0.3-0.3
				c-0.1,0-0.1-0.1-0.2-0.1c-0.1,0-0.2,0-0.3,0.1c0,0-0.2,0.1-0.2,0.1c0.1,0.1,0.2,0.2,0.3,0.3c0.1,0.1,0.3,0.3,0.4,0.5
				c0.2,0.4,0.2,0.9,0,1.3c-0.2,0.3-0.5,0.5-0.9,0.5c-0.3,0-0.2,0.1-0.2,0.3c0,0.3,0,0.5-0.1,0.8c-0.1,0.3-0.4,0.5-0.7,0.6
				c-0.3,0.1-0.6,0.1-0.9,0c-0.1,0-0.2-0.1-0.3-0.1c-0.2-0.1-0.4-0.4-0.4-0.6c0-0.1-0.2-0.8-0.2-0.7c-0.3,0.1-0.6,0.1-0.9,0.1
				c-0.4,0-0.8-0.1-1.1-0.4c-0.2-0.2-0.4-0.4-0.5-0.6c-0.1-0.1-0.1-0.3-0.1-0.4c0-0.1-0.1-0.2-0.1-0.3C42,7.9,41.9,8,41.8,8.2
				c0,0.1-0.1,0.1-0.2,0.2c0,0.1,0.1,0.2,0.1,0.3c0.1,0.2,0.2,0.4,0.3,0.6c0.1,0.2,0.3,0.4,0.5,0.6c0.2,0.2,0.5,0.2,0.8,0.3
				c0.3,0.1,0.7,0,1.1,0c-0.1,0.4,0.1,0.7,0.3,1c0.1,0.1,0.3,0.2,0.3,0.3c0.1,0.1,0,0.2-0.1,0.4c0,0.1,0,0.3,0.1,0.4
				c0,0.1,0.1,0.2,0.2,0.3c0.1,0.1,0.2,0.1,0.3,0.2c0.1,0.1,0.1,0.2,0,0.3c0,0.2,0,0.3,0.1,0.5c0,0,0,0,0,0.1c0,0,0.2,0,0.3,0.1
				c0.1,0,0.2,0,0.3,0c0.2,0,0.4,0.1,0.6,0c-0.2-0.1-0.3-0.2-0.4-0.3c-0.1-0.1-0.2-0.2-0.2-0.3c0-0.1,0-0.3,0.1-0.3
				c-0.4-0.1-0.8-0.2-0.9-0.7c0-0.1,0-0.1,0-0.2c0-0.1,0-0.2,0-0.4c0-0.1,0.1-0.2,0.2-0.3c0.1-0.1,0.3,0,0.5,0
				c0.2,0,0.4-0.1,0.6-0.2c0.2-0.1,0.3-0.2,0.5-0.3c0.2-0.1,0.3-0.3,0.5-0.3c0.2,0,0.4,0.2,0.4,0.4c0.1,0.2,0,0.5,0,0.7
				c0,0,0,0,0,0.1c0,0,0.1,0,0.1,0c0.6,0.1,0.7,0.8,0.6,1.2c0.1,0.1,0.2,0.2,0.2,0.4c0,0.2,0,0.3-0.1,0.4c0,0,0.3,0,0.3,0
				c0.1,0,0.2,0,0.3-0.1c0.1,0,0.2,0,0.2-0.1c0-0.1,0-0.2,0-0.3c-0.1-0.2-0.4-0.3-0.4-0.5c0,0,0-0.1,0-0.1c0-0.2,0-0.3,0-0.5
				c-0.1-0.1-0.1-0.3-0.2-0.4c-0.1-0.1-0.2-0.1-0.3-0.2c-0.1,0-0.2,0-0.1-0.2c0-0.2,0-0.3,0-0.5c0-0.1-0.1-0.3-0.1-0.4
				c0-0.1,0.5-0.2,0.6-0.2c0.2,0,0.2,0.1,0.2,0.3c0.1,0.2,0.3,0.4,0.5,0.5c0.3,0.1,0.6,0.1,1,0c0.2-0.1,0.3-0.2,0.4,0
				c0.1,0.2,0.1,0.4,0.3,0.5c0.1,0.1,0.2,0.1,0.2,0.1c0.3,0.1,0.7-0.1,0.9-0.3c0.2-0.1,0.2,0.2,0.3,0.3c0.1,0.2,0.3,0.4,0.5,0.4
				c0.1,0,0.2,0,0.3,0c0.2,0,0.3,0,0.5,0c0.2,0,0.4-0.1,0.5-0.3c0.1-0.1,0-0.3,0-0.5c-0.1,0.1-0.2,0.1-0.4,0.2c-0.2,0-0.3,0-0.5,0
				c-0.2,0-0.4-0.1-0.6-0.2c-0.1-0.1-0.2-0.2-0.2-0.4c0-0.1-0.1-0.1-0.2,0C53,11,53,11,52.9,11c-0.2,0.2-0.5,0.3-0.8,0.2
				c-0.1,0-0.1,0-0.2,0c-0.1,0-0.1-0.1-0.2-0.2c0-0.1-0.1-0.1-0.1-0.2c0-0.1-0.1-0.2-0.1-0.3c0,0-0.1-0.2-0.1-0.2
				c-0.1,0-0.2,0.1-0.2,0.1c-0.1,0-0.2,0.1-0.2,0.1c-0.3,0.1-0.7,0.1-0.9-0.2c-0.2-0.2-0.2-0.5-0.3-0.8c0,0,0,0,0,0
				c-0.1,0-0.5,0.2-0.6,0.2c-0.2,0-0.6,0-0.7-0.2c-0.1-0.2,0.2-0.5,0.3-0.7c0.2-0.4,0.3-0.8,0.2-1.2c0-0.5,0.5,0,0.6,0.1
				c0.1,0.1,0.2,0.2,0.2,0.4c0,0.1,0,0.1,0.1,0.2c0,0,0,0.1,0,0.1c0,0,0.1-0.1,0.1-0.1c0.1,0,0.1-0.1,0.2-0.1c0.1,0,0.3-0.1,0.4-0.1
				c0.1,0,0.1,0,0.2,0c0.1,0,0.1,0.1,0.2,0.1c0.1,0.1,0.2,0.2,0.3,0.4c0,0.1,0,0.2,0.1,0.2c0,0.1,0.2,0,0.2-0.1
				c0.1,0,0.1-0.1,0.2-0.1c0.1,0,0.2,0,0.3,0c0.1,0,0.2,0,0.3,0c0.2,0,0.5,0.2,0.6,0.4c0,0.1,0,0.1,0.1,0.2c0,0.1,0.1,0.1,0.1,0
				c0.3-0.2,0.7-0.3,1-0.2c0.2,0.1,0.3,0.1,0.4,0.2c0.2,0.1,0.3,0.3,0.4,0.5C55,9.9,55.1,10,55.1,10C55.1,10.1,55.1,10.1,55.1,10
				C55.1,10.1,55.1,10.1,55.1,10C55.1,10,55.1,10,55.1,10z M53.4,10.6c0,0.1,0,0.2,0.1,0.3c0.1,0.2,0.5,0.3,0.7,0.2
				c0.1,0,0.1-0.1,0.2-0.2c0.1-0.1,0.1-0.2,0.2-0.2c0,0,0,0,0-0.1c0,0,0,0,0.1,0c0.1,0.1,0,0.2,0.1,0.3c0,0.1,0.1,0.2,0.1,0.3
				c0,0,0,0,0.1,0c0,0,0,0,0,0c0.1-0.1,0.1-0.2,0.1-0.4c0-0.2,0-0.5-0.1-0.7c-0.1-0.2-0.2-0.4-0.4-0.5c-0.2-0.1-0.5-0.1-0.7-0.1
				c-0.1,0-0.2,0.1-0.3,0.2C53.2,9.8,53,10,52.9,10c0,0,0,0,0,0c-0.1,0-0.1-0.1-0.1-0.1c0-0.1-0.1-0.2-0.2-0.3
				c0-0.1-0.1-0.1-0.1-0.2c-0.3-0.3-0.9,0-1.2,0.2c0,0,0,0,0,0c0,0,0,0,0,0c0-0.1-0.1-0.2-0.1-0.4C51,9,50.8,8.9,50.7,8.9
				c-0.2,0-0.3,0.2-0.5,0.2c0,0,0-0.1,0-0.1c0-0.1,0-0.3-0.2-0.2c-0.1,0-0.1,0.1-0.1,0.2c0,0.3,0,0.6,0.1,0.9
				c0.1,0.2,0.2,0.3,0.4,0.4c0.2,0.1,0.4,0.1,0.5,0c0.1,0,0.2-0.1,0.3-0.1c0.1-0.1,0.2-0.2,0.3-0.1c0.1,0.1,0.1,0.3,0.2,0.5
				c0,0.1,0.1,0.1,0.1,0.2c0.2,0.1,0.4,0.2,0.6,0.2c0.2,0,0.4-0.1,0.6-0.2c0,0,0.1-0.1,0.2-0.1c0.1,0,0.1,0,0.1,0
				C53.4,10.5,53.4,10.6,53.4,10.6z M41,11.9c0.1-0.1,0.2-0.3,0.2-0.5c0.1-0.2,0.1-0.5,0.1-0.8c0-0.6,0-1.3,0-1.9c0,0,0,0,0,0
				C41,9.6,41,10.7,41,11.9z M46.7,9.4c0-0.1,0-0.1,0-0.2c0-0.1-0.2-0.2-0.3-0.1c-0.1,0-0.2,0.1-0.3,0.1c-0.3,0-0.5-0.1-0.6-0.4
				c-0.1-0.2-0.2-0.5-0.2-0.7c0-0.4-0.1-0.8-0.1-1.2c0,0,0,0,0-0.1l-0.2,0c0,0,0,0,0,0c0,0.2,0,0.5,0,0.7c0,0.3,0.1,0.6,0.1,0.8
				c0,0.2,0.1,0.5,0.3,0.7c0.1,0.1,0.1,0.1,0.2,0.2c0,0.1,0,0.2,0,0.3c0,0.2,0,0.3,0.1,0.5c0,0,0.1,0.1,0.1,0.1c0,0,0.1,0,0.1,0
				c0.1,0,0.3,0,0.4,0c0.1,0,0.3-0.1,0.4-0.2C46.8,9.8,46.7,9.6,46.7,9.4z M44.9,6.8l-0.3,0c-0.1,0-0.2,0-0.3,0
				C44,7,44,7.2,43.8,7.4c-0.1,0.2-0.3,0.4-0.5,0.7c-0.1,0.1-0.1,0.2-0.3,0.2c-0.1,0-0.3,0.1-0.4,0.1c-0.1,0-0.2,0-0.2,0
				c0,0,0,0,0,0c0.1,0.1,0.3,0.1,0.4,0.2c0.2,0.1,0.4,0.1,0.6,0.2c0.4,0.1,0.8,0.1,1.2-0.1c0.1,0,0.1-0.1,0.2-0.2
				c0-0.1,0.1-0.2,0.1-0.3c0-0.2,0-0.5,0-0.7C44.9,7.2,44.9,7.1,44.9,6.8z M42.5,7.6C42.5,7.6,42.6,7.7,42.5,7.6
				c0.1,0.1,0.1,0.1,0.2,0.1c0,0,0,0,0.1,0c0.1,0,0.2,0,0.3-0.1c0.2-0.1,0.3-0.2,0.4-0.3c0,0,0.1-0.1,0.1-0.1c-0.1,0-0.3,0-0.4,0
				c0,0-0.1,0-0.1,0.1c0,0-0.1,0-0.1,0c-0.2,0.1-0.2,0.1-0.4,0.1C42.6,7.5,42.5,7.5,42.5,7.6z M47.1,8.8c0.4-0.1,0.8-0.2,1.2-0.2
				c0-0.1-0.2-0.2-0.4-0.2c-0.1,0-0.2-0.1-0.4-0.2c-0.2-0.2-0.5-0.4-0.7-0.5c-0.1,0-0.1-0.1-0.1-0.1c0,0-0.1-0.1-0.1-0.1
				c-0.2-0.3-0.5-0.5-0.8-0.6l-0.5,0c0,0,0,0,0,0l0,0l0,0c0.1,0.3,0,0.6,0,0.9c0.1,0.2,0.2,0.5,0.4,0.7c0.1,0.1,0.2,0.2,0.2,0.3
				C46.3,8.9,46.7,8.9,47.1,8.8z M47.8,6.9c0,0-0.1,0-0.1,0c-0.2,0-0.3,0-0.5,0l0,0c-0.1,0-0.2,0-0.4,0c-0.1,0-0.2,0-0.3,0.1
				c0,0,0,0,0,0c0,0,0,0.1,0.1,0.1c0.1,0,0.2,0,0.2,0c0.1,0,0.3,0,0.5,0c0.2,0,0.3-0.1,0.5-0.1c0,0,0.1,0,0.1-0.1
				C47.9,7,47.8,6.9,47.8,6.9z M51.9,3C51.9,3,51.9,3.1,51.9,3c0.2,0.2,0.5,0.3,0.7,0.5c0.1,0.1,0.3,0.2,0.3,0.4
				C52.9,4,53,4.2,53,4.3c0,0.2,0.1,0.4,0.1,0.6c0.1,0,0.2,0,0.2-0.1c0.2-0.2,0.2-0.5,0.2-0.7c0-0.2,0-0.3,0-0.5
				c0-0.2,0-0.3-0.1-0.5c0-0.1-0.1-0.2-0.1-0.3c-0.1-0.1-0.1-0.2-0.2-0.3c0,0,0-0.1-0.1-0.1C52.7,2.6,52.2,2.8,51.9,3z M54.6,5.5
				c-0.1,0.1-0.1,0.1-0.2,0.1c-0.3,0-0.6,0.1-0.9,0c0,0-0.1,0-0.1,0c0,0,0,0,0,0c0,0,0.1,0.1,0.1,0.1c0.4,0.1,0.8,0.1,1.2-0.1
				c0,0,0.1,0,0.1-0.1c0,0,0.1-0.1,0-0.2c0-0.2-0.2-0.4-0.3-0.6c-0.2-0.1-0.4-0.2-0.6-0.4c0,0-0.1,0-0.1-0.1c0,0,0-0.1,0-0.1
				c0-0.1,0.1-0.1,0.2-0.1l0,0c-0.1,0-0.1-0.1-0.2-0.1c0,0-0.1,0-0.1,0c-0.1,0.1,0,0.2,0,0.3c0.1,0.2,0.3,0.4,0.5,0.5
				c0.1,0,0.1,0.1,0.2,0.1s0.1,0.1,0.1,0.2C54.7,5.3,54.7,5.4,54.6,5.5z M52,5.7C52,5.7,52,5.7,52,5.7C52,5.7,52,5.7,52,5.7
				c0.3,0,0.4-0.1,0.6-0.2c0.1,0,0.1-0.1,0.2-0.1c0.1-0.1,0.1-0.3,0.1-0.4c0-0.3,0-0.5-0.1-0.8c-0.1-0.3-0.3-0.5-0.6-0.6
				c-0.1-0.1-0.3-0.2-0.4-0.3c-0.1,0-0.1-0.1-0.2-0.1c-0.2,0.1-0.3,0.2-0.4,0.3c0,0.2,0.2,0.5,0.3,0.7c0.2,0.3,0.5,0.6,0.5,1
				C52,5.3,52,5.5,52,5.7z M50.6,4c0,0.2,0,0.4,0,0.6c0.1,0.4,0.2,0.7,0.2,1.1c0,0.1-0.1,0.5,0,0.6c0.1,0.1,0.5-0.1,0.6-0.2
				c0.1-0.1,0.3-0.3,0.3-0.4c0,0,0-0.1,0-0.1c0-0.1,0-0.2,0-0.4c0-0.3-0.2-0.6-0.4-0.8C51.2,4.2,51,3.9,51,3.6
				C50.8,3.8,50.7,3.9,50.6,4z M57.2,4.6C57.2,4.6,57.2,4.6,57.2,4.6C57.2,4.6,57.2,4.6,57.2,4.6c0.1,0,0.2-0.2,0.3-0.3c0,0,0,0,0,0
				c0,0,0,0,0,0c0,0,0,0,0,0c0,0,0,0-0.1,0.1C57.3,4.3,57.2,4.4,57.2,4.6L57.2,4.6z M57,4.4C57,4.4,57,4.4,57,4.4
				C57,4.4,57,4.4,57,4.4c0.1,0,0.2-0.2,0.3-0.3c0,0,0,0,0,0c0,0,0,0,0,0c0,0,0,0,0,0c0,0,0,0-0.1,0.1C57.1,4.1,57,4.2,57,4.4
				L57,4.4z M56.8,4.2C56.8,4.2,56.8,4.2,56.8,4.2C56.8,4.2,56.8,4.2,56.8,4.2C56.9,4.1,57,4,57,3.9c0,0,0,0,0,0c0,0,0,0,0,0
				c0,0,0,0,0,0c0,0,0,0-0.1,0.1C56.9,3.9,56.8,4.1,56.8,4.2L56.8,4.2z"/>
		</g>
	</g>
	<g>
		<path class="st0" d="M78.3,6.4c-0.2-0.2-0.5-0.2-0.8-0.4c-0.2-0.1-0.3-0.2-0.4-0.3c-0.1-0.1-0.1-0.1-0.2-0.2
			c-0.2-0.2-0.4-0.4-0.6-0.6l0,0c0,0.1,0.1,0.2,0.1,0.3c0.1,0.2,0.1,0.3,0.1,0.5c0,0.1,0,0.2,0.1,0.4c0,0,0,0,0,0c0,0,0,0,0,0
			c0.1,0,0.2,0,0.4,0.1c0.1,0,0.2,0,0.3,0c0.3,0,0.7,0.1,1,0.2C78.2,6.5,78.2,6.5,78.3,6.4C78.3,6.5,78.3,6.5,78.3,6.4z"/>
		<g>
			<path class="st0" d="M79.7,6.7c-0.1,0.1-0.1,0.2-0.2,0.3c0,0.1-0.1,0.1-0.2,0.2C79,7.6,78.8,7.9,78.5,8c-0.3,0.1-0.8-0.1-1.2-0.2
				c-0.1-0.1-0.3-0.1-0.4-0.1c-0.1,0-0.2-0.1-0.3,0c0,0-0.1,0.1-0.1,0.2c-1.4,3.2-0.8,6.8-0.8,10.2c0,0.6,0.1,1.6-0.4,2
				C75,20,74.7,20,74.5,20c-0.4,0-0.7,0-1.1,0c-0.3,0-0.6-0.1-0.7-0.4c-0.1-0.2-0.1-0.4-0.1-0.5c0-0.2-0.1-0.4-0.1-0.6
				c-0.1-0.4-0.2-0.8-0.3-1.3c-0.2-0.8-0.4-1.6-0.6-2.5c0-0.1-0.1-0.3-0.1-0.4c0-0.1,0-0.1,0-0.2c0-0.1,0-0.1,0-0.2
				c-0.1,0-0.3,0.1-0.5,0.1c-0.2,0-0.4,0.1-0.6,0.1c-0.8,0.1-1.6,0.2-2.4,0.1c-0.2,0-0.3,0-0.5,0c-0.7,0-1.4,0-2-0.4
				c0,0-0.7,2.4-0.8,2.6c-0.2,0.9-0.4,1.8-0.5,2.8c0,0.3-0.1,0.7-0.3,0.8c-0.1,0.1-0.3,0.1-0.4,0.1l-1.5,0c0,0,0,0,0,0
				c-0.1,0-0.4,0-0.5-0.2c-0.1-0.1-0.1-0.1-0.1-0.2l0,0L60.9,12c-0.1-1.5-0.1-3,0.8-4.1c0.6-0.7,1.2-1.2,2-1.4
				c0.4-0.1,0.8-0.1,1.2-0.1l1.9-0.1c1,0,2.1-0.1,2.6-0.8c0.1-0.2,0.3-0.4,0.4-0.6c0.1-0.1,0.1-0.2,0.2-0.3c0.8-1.4,2.4-2.4,4.8-3
				c0.6-0.1,0.8-0.3,1.3-0.7c0.2-0.2,0.4-0.4,0.6-0.5L77-0.1L77.1,2c0,0.1,0.1,0.3,0.1,0.5c0.1,0.2,0.2,0.4,0.3,0.6
				c0.2,0.3,0.5,0.6,0.8,0.9c0.1,0.1,0.3,0.3,0.4,0.4c0.5,0.5,1,1.1,1.1,2C79.8,6.5,79.8,6.6,79.7,6.7z M78,7.4
				c0-0.1,0.1-0.1,0.1-0.2c0.1-0.1,0.1-0.2,0.2-0.3c0,0,0.1-0.2,0.2-0.2c0,0,0,0,0.1,0c0,0,0.1,0.1,0.2,0.1c0,0,0.1-0.1,0.1-0.1
				c0,0,0,0,0,0c0,0,0,0,0,0c0,0-0.2-0.1-0.2-0.1c0,0,0,0,0-0.1c0,0,0,0,0,0c0,0,0,0,0,0c0,0,0,0,0.1,0c0.2,0.1,0.3,0.2,0.5,0.3
				c0,0,0.1-0.1,0.1-0.1c-0.1,0-0.2-0.1-0.2-0.1c-0.1-0.1-0.3-0.1-0.4-0.2c0.1-0.1,0.2-0.2,0.3-0.4c0.1-0.1,0.2-0.3,0.2-0.4
				c0,0,0,0,0,0c0-0.1-0.1-0.1-0.1-0.2c0,0,0,0,0,0c-0.1,0.1-0.2,0.2-0.2,0.3c-0.1,0.1-0.1,0.2-0.2,0.3c0,0-0.1,0.1-0.1,0.1
				c0,0,0,0.1-0.1,0.1c0,0,0,0,0,0C78,6.1,77.6,6,77.3,5.7c-0.4-0.3-0.7-0.7-1.1-1c0,0-0.1-0.1-0.1-0.1c0-0.1,0.2-0.2,0.3-0.2
				c0,0,0.1,0,0.1,0c0,0,0,0,0.1,0c0,0,0-0.2-0.1-0.2c-0.1,0-0.2,0.1-0.3,0.1c0,0-0.1,0-0.1,0c0,0,0,0-0.1-0.1c0,0-0.1-0.1,0-0.1
				c0,0,0.1,0,0.1,0c0,0,0.2-0.1,0.2-0.1c0,0,0-0.1,0-0.1c-0.1,0-0.2,0-0.3,0c0,0-0.1,0-0.1,0c0,0-0.1,0-0.1,0c0,0-0.1,0-0.1-0.1
				c-0.1-0.2-0.2-0.3-0.3-0.5c-0.2-0.3-0.4-0.7-0.6-1c0-0.1-0.1-0.1-0.1-0.2c0,0-0.1-0.1-0.1,0c0,0,0,0,0,0.1c0,0.1,0.1,0.1,0.1,0.2
				c0.3,0.4,0.5,0.9,0.8,1.3c0,0,0,0.1,0,0.1c0,0,0,0.1,0,0.1c0,0-0.1,0-0.1,0c-0.1,0-0.1,0-0.1,0c-0.1,0-0.1,0-0.2,0
				c0,0-0.1-0.1-0.1-0.1c-0.1-0.2-0.2-0.3-0.4-0.4c0,0-0.1-0.1-0.1-0.1c0,0,0-0.1,0-0.1c0,0,0.1,0,0.1,0c0.1,0,0-0.2,0-0.2
				c-0.1-0.2-0.3-0.5-0.4-0.7c0-0.1-0.1-0.1-0.1-0.2c-0.1,0-0.1,0-0.2,0.1c0,0,0,0.1,0,0.1c0,0.1,0.1,0.1,0.1,0.1
				c0.1,0.2,0.2,0.3,0.3,0.5c0,0.1,0.1,0.2,0.1,0.2c0,0.1-0.1,0.1-0.1,0.1c0,0,0,0.1,0,0.1c0,0,0,0.1,0.1,0.1
				c0.1,0.1,0.2,0.2,0.3,0.3C74.8,3.9,74.9,4,74.9,4c0,0,0.1,0.1,0.1,0.1c0,0-0.1,0-0.1,0c0,0,0,0,0,0c0,0,0,0,0,0c0,0,0,0.1,0,0.1
				c0,0,0,0,0,0c0,0,0,0,0,0c0.3,0,0.5-0.1,0.7-0.1c0,0,0,0,0,0c0,0,0,0,0,0c0,0,0,0.1,0,0.1c0,0-0.1,0-0.1,0c-0.1,0-0.2,0-0.3,0
				c-0.1,0-0.2,0-0.4,0c0,0-0.1,0-0.1,0c0,0,0,0,0,0.1c0,0,0,0.1,0,0.1c0,0,0,0,0,0c0,0,0,0,0,0c0.1,0,0.2,0,0.4,0
				c0.2,0,0.3,0,0.5,0c0,0,0.1,0,0.1,0c0,0,0,0,0.1,0.1c0.1,0.2,0.2,0.5,0.3,0.7c0,0.1,0.1,0.3,0.1,0.4c0,0.1,0,0.2,0,0.3
				c0,0,0,0,0,0c0,0,0,0,0,0c-0.6,0.1-1.2,0.5-1.7,0.7c-0.3,0.1-0.6,0.3-0.9,0.3c-0.4,0.1-0.7,0-1.1,0c-0.1,0-0.2,0-0.3-0.1
				C72.2,7.2,72.2,7,72.2,7c0.1-0.1,0.3-0.1,0.4,0c0.1,0,0.2,0,0.3,0c0.1,0,0.1-0.1,0.1-0.2c0,0,0-0.1,0-0.1c0,0,0,0,0,0
				c0,0,0.1,0,0.1,0c0.2,0,0.3,0.1,0.5,0.1c0,0,0.1,0,0.1,0c0.1,0,0.1-0.1,0.1-0.2c0-0.1,0-0.2-0.1-0.2c-0.1-0.1-0.2-0.1-0.3-0.1
				c0,0-0.1,0-0.1,0.1c0,0.1,0.2,0.2,0.2,0.3c-0.1,0-0.3,0-0.4-0.1c0,0-0.1,0-0.1,0c-0.1,0-0.2,0-0.2,0.1c0,0.1,0,0.2,0,0.2
				c-0.1,0-0.3,0-0.4,0s-0.3,0-0.4,0.1c-0.1,0.1-0.2,0.2-0.1,0.4c-0.2,0-0.4-0.1-0.6-0.1c-0.2-0.1-0.3-0.1-0.5-0.2
				c-0.1,0-0.2-0.1-0.3-0.2c0,0-0.1-0.1-0.1-0.2c0-0.1,0.1-0.1,0.2-0.1c0.1,0,0.2,0,0.3,0c0,0,0,0,0.1,0c0,0,0-0.1,0-0.1
				c0,0,0,0-0.1-0.1c-0.1-0.1-0.3-0.1-0.4-0.2c0,0-0.1,0-0.1-0.1c0-0.1,0-0.1,0-0.1c0,0,0.1,0,0.1,0c0,0,0,0,0,0c0,0,0,0,0,0
				c0-0.1-0.1-0.1-0.2-0.2c-0.1,0-0.1,0-0.2,0c0,0-0.1,0-0.1-0.1c0,0,0,0.1-0.1,0.1c0.1,0,0.2,0.1,0.2,0.1c0,0-0.1,0.1-0.1,0.1
				c0,0,0,0-0.1,0.1c0,0,0,0.1,0,0.1c0,0,0,0,0.1,0.1c0.1,0.1,0.2,0.1,0.2,0.1c0.1,0.1,0.1,0.1,0.2,0.2c0,0,0,0,0,0c0,0,0,0,0,0
				c-0.1,0-0.4,0.1-0.4,0.2c0,0.1,0,0.2,0.1,0.3c0.1,0.1,0.2,0.1,0.2,0.1c0.1,0,0.1,0.1,0.2,0.1c0.2,0.1,0.3,0.2,0.5,0.3
				c0.2,0.1,0.4,0.2,0.6,0.2c0.3,0.1,0.5,0.2,0.8,0.2c0.1,0,0.3,0.1,0.4,0.1c0.1,0,0.2,0.1,0.3,0.1c0.1,0,0.3,0.1,0.4,0.1
				c0.6,0.1,1.3-0.1,1.8-0.5c0.2-0.2,0.4-0.4,0.6-0.7c0.1-0.1,0.1-0.1,0.2-0.2c0.1-0.1,0.3,0,0.4,0c0.2,0,0.3,0,0.5,0
				c0.2,0,0.4,0,0.6,0c0.1,0,0.2,0,0.3,0.1c0.1,0,0.2,0.1,0.1,0.2C78.1,6.9,78,7,78,7.1c-0.1,0.1-0.1,0.2-0.2,0.3
				C77.8,7.4,77.9,7.4,78,7.4z M67.6,12.6c-0.1,0.1-0.2,0.3-0.2,0.4c0,0.2,0.1,0.4,0.3,0.5c0.2,0.2,0.5,0.1,0.7,0.1
				c0.1,0,0.1,0,0.2,0c0.2,0,0.5-0.2,0.5-0.5c0-0.2-0.1-0.4-0.2-0.5c-0.1-0.1-0.3-0.1-0.5-0.1c0.1-0.2,0.1-0.4,0.1-0.5
				c0-0.1,0-0.2-0.1-0.2c-0.1-0.1-0.2-0.1-0.3-0.1c-0.2,0-0.3,0-0.5,0c0,0,0-0.1,0-0.1l0,0c0-0.1,0.1-0.2,0.2-0.2s0.2-0.1,0.2-0.2
				c-0.3-0.1-0.6-0.1-0.8,0c-0.2,0.1-0.4,0.4-0.5,0.7c0,0.2,0.1,0.5,0.3,0.5c0.2,0,0.4-0.2,0.6-0.1C67.8,12.5,67.6,12.6,67.6,12.6z
				 M75.4,10c0-0.1,0-0.2,0-0.3c0-0.1,0-0.1,0-0.2c0-0.1,0-0.1-0.1-0.1c0,0-0.1-0.1-0.1-0.1c-0.1-0.1-0.2-0.2-0.3-0.3
				c-0.2-0.2-0.5-0.4-0.8-0.4c-0.2,0-0.4,0-0.6,0c-0.1,0-0.2,0.1-0.3,0.1c-0.1,0-0.2-0.2-0.3-0.3c-0.1-0.1-0.1-0.1-0.2-0.2
				c-0.2-0.1-0.4-0.2-0.6-0.2c-0.2,0-0.3,0.1-0.4,0.2c-0.2,0.1-0.2,0-0.3-0.2c0-0.1-0.1-0.1-0.1-0.2c-0.1-0.1-0.2-0.2-0.3-0.2
				c-0.1-0.1-0.3-0.1-0.4-0.1c-0.1,0-0.3,0-0.4,0.1c-0.1,0.1-0.2,0.2-0.3,0.2c-0.1,0-0.1-0.1-0.1-0.1c-0.1-0.2-0.1-0.4-0.2-0.6
				c-0.2-0.2-0.4-0.2-0.7-0.2c0,0-0.1,0-0.1,0c0,0,0,0-0.1-0.1c-0.1-0.1-0.2-0.2-0.3-0.3c-0.1,0-0.1-0.1-0.2-0.1
				c-0.1,0-0.2,0-0.3,0.1c0,0-0.2,0.1-0.2,0.1c0.1,0.1,0.2,0.2,0.3,0.3c0.1,0.1,0.3,0.3,0.4,0.5c0.2,0.4,0.2,0.9,0,1.3
				c-0.2,0.3-0.5,0.5-0.9,0.5c-0.3,0-0.2,0.1-0.2,0.3c0,0.3,0,0.5-0.1,0.8c-0.1,0.3-0.4,0.5-0.7,0.6c-0.3,0.1-0.6,0.1-0.9,0
				c-0.1,0-0.2-0.1-0.3-0.1c-0.2-0.1-0.4-0.4-0.4-0.6c0-0.1-0.2-0.8-0.2-0.7c-0.3,0.1-0.6,0.1-0.9,0.1c-0.4,0-0.8-0.1-1.1-0.4
				c-0.2-0.2-0.4-0.4-0.5-0.6c-0.1-0.1-0.1-0.3-0.1-0.4c0-0.1-0.1-0.2-0.1-0.3c-0.1,0.1-0.2,0.3-0.4,0.4c0,0.1-0.1,0.1-0.2,0.2
				c0,0.1,0.1,0.2,0.1,0.3c0.1,0.2,0.2,0.4,0.3,0.6c0.1,0.2,0.3,0.4,0.5,0.6c0.2,0.2,0.5,0.2,0.8,0.3c0.3,0.1,0.7,0,1.1,0
				c-0.1,0.4,0.1,0.7,0.3,1c0.1,0.1,0.3,0.2,0.3,0.3c0.1,0.1,0,0.2-0.1,0.4c0,0.1,0,0.3,0.1,0.4c0,0.1,0.1,0.2,0.2,0.3
				c0.1,0.1,0.2,0.1,0.3,0.2c0.1,0.1,0.1,0.2,0,0.3c0,0.2,0,0.3,0.1,0.5c0,0,0,0,0,0.1c0,0,0.2,0,0.3,0.1c0.1,0,0.2,0,0.3,0
				c0.2,0,0.4,0.1,0.6,0c-0.2-0.1-0.3-0.2-0.4-0.3c-0.1-0.1-0.2-0.2-0.2-0.3c0-0.1,0-0.3,0.1-0.3c-0.4-0.1-0.8-0.2-0.9-0.7
				c0-0.1,0-0.1,0-0.2c0-0.1,0-0.2,0-0.4c0-0.1,0.1-0.2,0.2-0.3c0.1-0.1,0.3,0,0.5,0c0.2,0,0.4-0.1,0.6-0.2c0.2-0.1,0.3-0.2,0.5-0.3
				c0.2-0.1,0.3-0.3,0.5-0.3c0.2,0,0.4,0.2,0.4,0.4c0.1,0.2,0,0.5,0,0.7c0,0,0,0,0,0.1c0,0,0.1,0,0.1,0c0.6,0.1,0.7,0.8,0.6,1.2
				c0.1,0.1,0.2,0.2,0.2,0.4c0,0.2,0,0.3-0.1,0.4c0,0,0.3,0,0.3,0c0.1,0,0.2,0,0.3-0.1c0.1,0,0.2,0,0.2-0.1c0-0.1,0-0.2,0-0.3
				c-0.1-0.2-0.4-0.3-0.4-0.5c0,0,0-0.1,0-0.1c0-0.2,0-0.3,0-0.5c-0.1-0.1-0.1-0.3-0.2-0.4c-0.1-0.1-0.2-0.1-0.3-0.2
				c-0.1,0-0.2,0-0.1-0.2c0-0.2,0-0.3,0-0.5c0-0.1-0.1-0.3-0.1-0.4c0-0.1,0.5-0.2,0.6-0.2c0.2,0,0.2,0.1,0.2,0.3
				c0.1,0.2,0.3,0.4,0.5,0.5c0.3,0.1,0.6,0.1,1,0c0.2-0.1,0.3-0.2,0.4,0c0.1,0.2,0.1,0.4,0.3,0.5c0.1,0.1,0.2,0.1,0.2,0.1
				c0.3,0.1,0.7-0.1,0.9-0.3c0.2-0.1,0.2,0.2,0.3,0.3c0.1,0.2,0.3,0.4,0.5,0.4c0.1,0,0.2,0,0.3,0c0.2,0,0.3,0,0.5,0
				c0.2,0,0.4-0.1,0.5-0.3c0.1-0.1,0-0.3,0-0.5c-0.1,0.1-0.2,0.1-0.4,0.2c-0.2,0-0.3,0-0.5,0c-0.2,0-0.4-0.1-0.6-0.2
				c-0.1-0.1-0.2-0.2-0.2-0.4c0-0.1-0.1-0.1-0.2,0c-0.1,0-0.1,0.1-0.2,0.1c-0.2,0.2-0.5,0.3-0.8,0.2c-0.1,0-0.1,0-0.2,0
				c-0.1,0-0.1-0.1-0.2-0.2c0-0.1-0.1-0.1-0.1-0.2c0-0.1-0.1-0.2-0.1-0.3c0,0-0.1-0.2-0.1-0.2c-0.1,0-0.2,0.1-0.2,0.1
				c-0.1,0-0.2,0.1-0.2,0.1c-0.3,0.1-0.7,0.1-0.9-0.2c-0.2-0.2-0.2-0.5-0.3-0.8c0,0,0,0,0,0c-0.1,0-0.5,0.2-0.6,0.2
				c-0.2,0-0.6,0-0.7-0.2c-0.1-0.2,0.2-0.5,0.3-0.7c0.2-0.4,0.3-0.8,0.2-1.2c0-0.5,0.5,0,0.6,0.1c0.1,0.1,0.2,0.2,0.2,0.4
				c0,0.1,0,0.1,0.1,0.2c0,0,0,0.1,0,0.1c0,0,0.1-0.1,0.1-0.1c0.1,0,0.1-0.1,0.2-0.1c0.1,0,0.3-0.1,0.4-0.1c0.1,0,0.1,0,0.2,0
				c0.1,0,0.1,0.1,0.2,0.1c0.1,0.1,0.2,0.2,0.3,0.4c0,0.1,0,0.2,0.1,0.2c0,0.1,0.2,0,0.2-0.1c0.1,0,0.1-0.1,0.2-0.1
				c0.1,0,0.2,0,0.3,0c0.1,0,0.2,0,0.3,0c0.2,0,0.5,0.2,0.6,0.4c0,0.1,0,0.1,0.1,0.2c0,0.1,0.1,0.1,0.1,0c0.3-0.2,0.7-0.3,1-0.2
				c0.2,0.1,0.3,0.1,0.4,0.2c0.2,0.1,0.3,0.3,0.4,0.5C75.3,9.9,75.3,10,75.4,10C75.4,10.1,75.4,10.1,75.4,10
				C75.4,10.1,75.4,10.1,75.4,10C75.4,10,75.4,10,75.4,10z M73.7,10.6c0,0.1,0,0.2,0.1,0.3c0.1,0.2,0.5,0.3,0.7,0.2
				c0.1,0,0.1-0.1,0.2-0.2c0.1-0.1,0.1-0.2,0.2-0.2c0,0,0,0,0-0.1s0,0,0.1,0c0.1,0.1,0,0.2,0.1,0.3c0,0.1,0.1,0.2,0.1,0.3
				c0,0,0,0,0.1,0c0,0,0,0,0,0c0.1-0.1,0.1-0.2,0.1-0.4c0-0.2,0-0.5-0.1-0.7c-0.1-0.2-0.2-0.4-0.4-0.5c-0.2-0.1-0.5-0.1-0.7-0.1
				c-0.1,0-0.2,0.1-0.3,0.2c-0.1,0.1-0.3,0.3-0.4,0.3c0,0,0,0,0,0c-0.1,0-0.1-0.1-0.1-0.1c0-0.1-0.1-0.2-0.2-0.3
				c0-0.1-0.1-0.1-0.1-0.2c-0.3-0.3-0.9,0-1.2,0.2c0,0,0,0,0,0c0,0,0,0,0,0c0-0.1-0.1-0.2-0.1-0.4C71.3,9,71.1,8.9,71,8.9
				c-0.2,0-0.3,0.2-0.5,0.2c0,0,0-0.1,0-0.1c0-0.1,0-0.3-0.2-0.2c-0.1,0-0.1,0.1-0.1,0.2c0,0.3,0,0.6,0.1,0.9
				c0.1,0.2,0.2,0.3,0.4,0.4c0.2,0.1,0.4,0.1,0.5,0c0.1,0,0.2-0.1,0.3-0.1c0.1-0.1,0.2-0.2,0.3-0.1c0.1,0.1,0.1,0.3,0.2,0.5
				c0,0.1,0.1,0.1,0.1,0.2c0.2,0.1,0.4,0.2,0.6,0.2c0.2,0,0.4-0.1,0.6-0.2c0,0,0.1-0.1,0.2-0.1c0.1,0,0.1,0,0.1,0
				C73.7,10.5,73.7,10.6,73.7,10.6z M61.3,11.9c0.1-0.1,0.2-0.3,0.2-0.5c0.1-0.2,0.1-0.5,0.1-0.8c0-0.6,0-1.3,0-1.9c0,0,0,0,0,0
				C61.3,9.6,61.3,10.7,61.3,11.9z M67,9.4c0-0.1,0-0.1,0-0.2c0-0.1-0.2-0.2-0.3-0.1c-0.1,0-0.2,0.1-0.3,0.1c-0.3,0-0.5-0.1-0.6-0.4
				c-0.1-0.2-0.2-0.5-0.2-0.7c0-0.4-0.1-0.8-0.1-1.2c0,0,0,0,0-0.1l-0.2,0c0,0,0,0,0,0c0,0.2,0,0.5,0,0.7c0,0.3,0.1,0.6,0.1,0.8
				c0,0.2,0.1,0.5,0.3,0.7c0.1,0.1,0.1,0.1,0.2,0.2c0,0.1,0,0.2,0,0.3c0,0.2,0,0.3,0.1,0.5c0,0,0.1,0.1,0.1,0.1c0,0,0.1,0,0.1,0
				c0.1,0,0.3,0,0.4,0c0.1,0,0.3-0.1,0.4-0.2C67,9.8,67,9.6,67,9.4z M65.2,6.8l-0.3,0c-0.1,0-0.2,0-0.3,0c-0.3,0.1-0.3,0.3-0.5,0.6
				c-0.1,0.2-0.3,0.4-0.5,0.7c-0.1,0.1-0.1,0.2-0.3,0.2c-0.1,0-0.3,0.1-0.4,0.1c-0.1,0-0.2,0-0.2,0c0,0,0,0,0,0
				c0.1,0.1,0.3,0.1,0.4,0.2c0.2,0.1,0.4,0.1,0.6,0.2c0.4,0.1,0.8,0.1,1.2-0.1c0.1,0,0.1-0.1,0.2-0.2c0-0.1,0.1-0.2,0.1-0.3
				c0-0.2,0-0.5,0-0.7C65.2,7.2,65.2,7.1,65.2,6.8z M62.8,7.6C62.8,7.6,62.9,7.7,62.8,7.6C62.9,7.7,63,7.7,63,7.7c0,0,0,0,0.1,0
				c0.1,0,0.2,0,0.3-0.1c0.2-0.1,0.3-0.2,0.4-0.3c0,0,0.1-0.1,0.1-0.1c-0.1,0-0.3,0-0.4,0c0,0-0.1,0-0.1,0.1c0,0-0.1,0-0.1,0
				c-0.2,0.1-0.2,0.1-0.4,0.1C62.9,7.5,62.8,7.5,62.8,7.6z M67.4,8.8c0.4-0.1,0.8-0.2,1.2-0.2c0-0.1-0.2-0.2-0.4-0.2
				c-0.1,0-0.2-0.1-0.4-0.2c-0.2-0.2-0.5-0.4-0.7-0.5c-0.1,0-0.1-0.1-0.1-0.1c0,0-0.1-0.1-0.1-0.1c-0.2-0.3-0.5-0.5-0.8-0.6l-0.5,0
				c0,0,0,0,0,0l0,0l0,0c0.1,0.3,0,0.6,0,0.9C65.7,8,65.9,8.2,66,8.4c0.1,0.1,0.2,0.2,0.2,0.3C66.6,8.9,67,8.9,67.4,8.8z M68.1,6.9
				c0,0-0.1,0-0.1,0c-0.2,0-0.3,0-0.5,0l0,0c-0.1,0-0.2,0-0.4,0C67,7,66.9,7,66.8,7c0,0,0,0,0,0c0,0,0,0.1,0.1,0.1
				c0.1,0,0.2,0,0.2,0c0.1,0,0.3,0,0.5,0c0.2,0,0.3-0.1,0.5-0.1c0,0,0.1,0,0.1-0.1C68.1,7,68.1,6.9,68.1,6.9z M72.1,3
				C72.2,3,72.2,3.1,72.1,3c0.2,0.2,0.5,0.3,0.7,0.5c0.1,0.1,0.3,0.2,0.3,0.4c0.1,0.1,0.1,0.3,0.2,0.5c0,0.2,0.1,0.4,0.1,0.6
				c0.1,0,0.2,0,0.2-0.1c0.2-0.2,0.2-0.5,0.2-0.7c0-0.2,0-0.3,0-0.5c0-0.2,0-0.3-0.1-0.5c0-0.1-0.1-0.2-0.1-0.3
				c-0.1-0.1-0.1-0.2-0.2-0.3c0,0,0-0.1-0.1-0.1C73,2.6,72.5,2.8,72.1,3z M74.9,5.5c-0.1,0.1-0.1,0.1-0.2,0.1c-0.3,0-0.6,0.1-0.9,0
				c0,0-0.1,0-0.1,0c0,0,0,0,0,0c0,0,0.1,0.1,0.1,0.1c0.4,0.1,0.8,0.1,1.2-0.1c0,0,0.1,0,0.1-0.1c0,0,0.1-0.1,0-0.2
				c0-0.2-0.2-0.4-0.3-0.6c-0.2-0.1-0.4-0.2-0.6-0.4c0,0-0.1,0-0.1-0.1s0-0.1,0-0.1c0-0.1,0.1-0.1,0.2-0.1l0,0
				c-0.1,0-0.1-0.1-0.2-0.1c0,0-0.1,0-0.1,0c-0.1,0.1,0,0.2,0,0.3c0.1,0.2,0.3,0.4,0.5,0.5c0.1,0,0.1,0.1,0.2,0.1
				c0.1,0,0.1,0.1,0.1,0.2C75,5.3,75,5.4,74.9,5.5z M72.3,5.7C72.3,5.7,72.3,5.7,72.3,5.7C72.3,5.7,72.3,5.7,72.3,5.7
				c0.3,0,0.4-0.1,0.6-0.2c0.1,0,0.1-0.1,0.2-0.1c0.1-0.1,0.1-0.3,0.1-0.4c0-0.3,0-0.5-0.1-0.8c-0.1-0.3-0.3-0.5-0.6-0.6
				c-0.1-0.1-0.3-0.2-0.4-0.3c-0.1,0-0.1-0.1-0.2-0.1c-0.2,0.1-0.3,0.2-0.4,0.3c0,0.2,0.2,0.5,0.3,0.7c0.2,0.3,0.5,0.6,0.5,1
				C72.3,5.3,72.3,5.5,72.3,5.7z M70.8,4c0,0.2,0,0.4,0,0.6c0.1,0.4,0.2,0.7,0.2,1.1c0,0.1-0.1,0.5,0,0.6c0.1,0.1,0.5-0.1,0.6-0.2
				C71.8,6.1,72,5.9,72,5.7c0,0,0-0.1,0-0.1c0-0.1,0-0.2,0-0.4c0-0.3-0.2-0.6-0.4-0.8c-0.1-0.2-0.3-0.5-0.3-0.8
				C71.1,3.8,71,3.9,70.8,4z M77.5,4.6C77.5,4.6,77.5,4.6,77.5,4.6C77.5,4.6,77.5,4.6,77.5,4.6c0.1,0,0.2-0.2,0.3-0.3c0,0,0,0,0,0
				c0,0,0,0,0,0c0,0,0,0,0,0c0,0,0,0-0.1,0.1C77.6,4.3,77.5,4.4,77.5,4.6L77.5,4.6z M77.3,4.4C77.3,4.4,77.3,4.4,77.3,4.4
				C77.3,4.4,77.3,4.4,77.3,4.4c0.1,0,0.2-0.2,0.3-0.3c0,0,0,0,0,0c0,0,0,0,0,0c0,0,0,0,0,0c0,0,0,0-0.1,0.1
				C77.4,4.1,77.3,4.2,77.3,4.4L77.3,4.4z M77.1,4.2C77.1,4.2,77.1,4.2,77.1,4.2C77.1,4.2,77.1,4.2,77.1,4.2
				c0.1-0.1,0.2-0.2,0.3-0.3c0,0,0,0,0,0c0,0,0,0,0,0c0,0,0,0,0,0c0,0,0,0-0.1,0.1C77.1,3.9,77.1,4.1,77.1,4.2L77.1,4.2z"/>
		</g>
	</g>
	<g>
		<path class="st1" d="M86,7.7C86,8,86.2,8.2,86.3,8.4c0.1,0.1,0.2,0.2,0.2,0.3c0.3,0.2,0.7,0.3,1.1,0.2c0.4-0.1,0.8-0.2,1.2-0.2
			c0-0.1-0.2-0.2-0.4-0.2c-0.1,0-0.2-0.1-0.4-0.2c-0.2-0.2-0.5-0.4-0.7-0.5c-0.1,0-0.1-0.1-0.1-0.1c0,0-0.1-0.1-0.1-0.1
			c-0.2-0.3-0.5-0.5-0.8-0.6l-0.5,0c0,0,0,0,0,0l0,0l0,0C86,7.1,85.9,7.4,86,7.7z"/>
		<path class="st1" d="M83.3,7.7C83.3,7.7,83.3,7.7,83.3,7.7c0.2,0,0.3,0,0.4-0.1c0.2-0.1,0.3-0.2,0.4-0.3c0,0,0.1-0.1,0.1-0.1
			c-0.1,0-0.3,0-0.4,0c0,0-0.1,0-0.1,0.1c0,0-0.1,0-0.1,0c-0.2,0.1-0.2,0.1-0.4,0.1c-0.1,0-0.2,0-0.2,0.1c0,0,0,0.1,0.1,0.1
			C83.2,7.7,83.3,7.7,83.3,7.7z"/>
		<path class="st1" d="M85.7,8.4c0,0.2,0.1,0.5,0.3,0.7c0.1,0.1,0.1,0.1,0.2,0.2c0,0.1,0,0.2,0,0.3c0,0.2,0,0.3,0.1,0.5
			c0,0,0.1,0.1,0.1,0.1c0,0,0.1,0,0.1,0c0.1,0,0.3,0,0.4,0c0.1,0,0.3-0.1,0.4-0.2c0.1-0.2,0-0.4,0.1-0.6c0-0.1,0-0.1,0-0.2
			c0-0.1-0.2-0.2-0.3-0.1c-0.1,0-0.2,0.1-0.3,0.1c-0.3,0-0.5-0.1-0.6-0.4s-0.2-0.5-0.2-0.7c0-0.4-0.1-0.8-0.1-1.2c0,0,0,0,0-0.1
			l-0.2,0c0,0,0,0,0,0c0,0.2,0,0.5,0,0.7C85.6,7.8,85.7,8.1,85.7,8.4z"/>
		<path class="st1" d="M81.6,11.9c0.1-0.1,0.2-0.3,0.2-0.5c0.1-0.2,0.1-0.5,0.1-0.8c0-0.6,0-1.3,0-1.9c0,0,0,0,0,0
			C81.6,9.6,81.6,10.7,81.6,11.9z"/>
		<path class="st1" d="M83.5,8.6c0.2,0.1,0.4,0.1,0.6,0.2c0.4,0.1,0.8,0.1,1.2-0.1c0.1,0,0.1-0.1,0.2-0.2c0-0.1,0.1-0.2,0.1-0.3
			c0-0.2,0-0.5,0-0.7c0-0.2,0.1-0.4,0.1-0.6l-0.3,0c-0.1,0-0.2,0-0.3,0c-0.3,0.1-0.3,0.3-0.5,0.6c-0.1,0.2-0.3,0.4-0.5,0.7
			c-0.1,0.1-0.1,0.2-0.3,0.2c-0.1,0-0.3,0.1-0.4,0.1c-0.1,0-0.2,0-0.2,0c0,0,0,0,0,0C83.2,8.5,83.3,8.5,83.5,8.6z"/>
		<path class="st1" d="M90.3,7.1c-0.2-0.2-0.4-0.2-0.7-0.2c0,0-0.1,0-0.1,0c0,0,0,0-0.1-0.1c-0.1-0.1-0.2-0.2-0.3-0.3
			c-0.1,0-0.1-0.1-0.2-0.1c-0.1,0-0.2,0-0.3,0.1c0,0-0.2,0.1-0.2,0.1c0.1,0.1,0.2,0.2,0.3,0.3C88.8,7,89,7.2,89.1,7.4
			c0.2,0.4,0.2,0.9,0,1.3c-0.2,0.3-0.5,0.5-0.9,0.5c-0.3,0-0.2,0.1-0.2,0.3c0,0.3,0,0.5-0.1,0.8c-0.1,0.3-0.4,0.5-0.7,0.6
			c-0.3,0.1-0.6,0.1-0.9,0c-0.1,0-0.2-0.1-0.3-0.1c-0.2-0.1-0.4-0.4-0.4-0.6c0-0.1-0.2-0.8-0.2-0.7c-0.3,0.1-0.6,0.1-0.9,0.1
			c-0.4,0-0.8-0.1-1.1-0.4c-0.2-0.2-0.4-0.4-0.5-0.6c-0.1-0.1-0.1-0.3-0.1-0.4c0-0.1-0.1-0.2-0.1-0.3c-0.1,0.1-0.2,0.3-0.4,0.4
			c0,0.1-0.1,0.1-0.2,0.2c0,0.1,0.1,0.2,0.1,0.3c0.1,0.2,0.2,0.4,0.3,0.6c0.1,0.2,0.3,0.4,0.5,0.6c0.2,0.2,0.5,0.2,0.8,0.3
			c0.3,0.1,0.7,0,1.1,0c-0.1,0.4,0.1,0.7,0.3,1c0.1,0.1,0.3,0.2,0.3,0.3c0.1,0.1,0,0.2-0.1,0.4c0,0.1,0,0.3,0.1,0.4
			c0,0.1,0.1,0.2,0.2,0.3c0.1,0.1,0.2,0.1,0.3,0.2c0.1,0.1,0.1,0.2,0,0.3c0,0.2,0,0.3,0.1,0.5c0,0,0,0,0,0.1c0,0,0.2,0,0.3,0.1
			c0.1,0,0.2,0,0.3,0c0.2,0,0.4,0.1,0.6,0c-0.2-0.1-0.3-0.2-0.4-0.3c-0.1-0.1-0.2-0.2-0.2-0.3s0-0.3,0.1-0.3
			c-0.4-0.1-0.8-0.2-0.9-0.7c0-0.1,0-0.1,0-0.2c0-0.1,0-0.2,0-0.4c0-0.1,0.1-0.2,0.2-0.3c0.1-0.1,0.3,0,0.5,0c0.2,0,0.4-0.1,0.6-0.2
			c0.2-0.1,0.3-0.2,0.5-0.3c0.2-0.1,0.3-0.3,0.5-0.3c0.2,0,0.4,0.2,0.4,0.4c0.1,0.2,0,0.5,0,0.7c0,0,0,0,0,0.1c0,0,0.1,0,0.1,0
			c0.6,0.1,0.7,0.8,0.6,1.2c0.1,0.1,0.2,0.2,0.2,0.4s0,0.3-0.1,0.4c0,0,0.3,0,0.3,0c0.1,0,0.2,0,0.3-0.1c0.1,0,0.2,0,0.2-0.1
			c0-0.1,0-0.2,0-0.3c-0.1-0.2-0.4-0.3-0.4-0.5c0,0,0-0.1,0-0.1c0-0.2,0-0.3,0-0.5C90,12,90,11.8,89.9,11.7
			c-0.1-0.1-0.2-0.1-0.3-0.2c-0.1,0-0.2,0-0.1-0.2c0-0.2,0-0.3,0-0.5c0-0.1-0.1-0.3-0.1-0.4c0-0.1,0.5-0.2,0.6-0.2
			c0.2,0,0.2,0.1,0.2,0.3c0.1,0.2,0.3,0.3,0.4,0.4v-0.6c-0.2-0.2-0.2-0.5-0.2-0.8c0,0,0,0,0,0c-0.1,0-0.5,0.2-0.6,0.2
			c-0.2,0-0.6,0-0.6-0.2c-0.1-0.2,0.2-0.5,0.3-0.7c0.2-0.4,0.3-0.8,0.2-1.2c0-0.5,0.5,0,0.6,0.1c0.1,0.1,0.2,0.2,0.2,0.4
			c0,0.1,0,0.1,0.1,0.2c0,0,0,0.1,0,0.1c0,0,0,0,0,0V7.8c0,0-0.1-0.1-0.1-0.1C90.4,7.5,90.4,7.3,90.3,7.1z"/>
		<path class="st1" d="M88.7,12.6c0.1-0.2,0.1-0.4,0.1-0.5c0-0.1,0-0.2-0.1-0.2c-0.1-0.1-0.2-0.1-0.3-0.1c-0.2,0-0.3,0-0.5,0
			c0,0,0-0.1,0-0.1l0,0c0-0.1,0.1-0.2,0.2-0.2c0.1,0,0.2-0.1,0.2-0.2c-0.3-0.1-0.6-0.1-0.8,0c-0.2,0.1-0.4,0.4-0.5,0.7
			c0,0.2,0.1,0.5,0.3,0.5c0.2,0,0.4-0.2,0.6-0.1c0.1,0-0.1,0.2-0.1,0.2c-0.1,0.1-0.2,0.3-0.2,0.4c0,0.2,0.1,0.4,0.3,0.5
			c0.2,0.2,0.5,0.1,0.7,0.1c0.1,0,0.1,0,0.2,0c0.2,0,0.5-0.2,0.5-0.5c0-0.2-0.1-0.4-0.2-0.5C89.1,12.6,88.9,12.6,88.7,12.6z"/>
		<path class="st1" d="M90.6,9.6V8.8c-0.1,0-0.1,0.1-0.1,0.2C90.5,9.1,90.5,9.4,90.6,9.6z"/>
		<path class="st1" d="M90.4,6.4c0,0.1,0,0.2,0.1,0.3c0,0,0.1,0.1,0.1,0.1V6.2C90.5,6.3,90.4,6.3,90.4,6.4z"/>
		<path class="st1" d="M87.2,7.1c0.1,0,0.2,0,0.2,0c0.1,0,0.3,0,0.5,0c0.2,0,0.3-0.1,0.5-0.1c0,0,0.1,0,0.1-0.1c0,0,0-0.1-0.1-0.1
			s-0.1,0-0.1,0c-0.2,0-0.3,0-0.5,0l0,0c-0.1,0-0.2,0-0.4,0c-0.1,0-0.2,0-0.3,0.1C87.1,7.1,87.1,7.1,87.2,7.1
			C87.1,7.1,87.1,7.1,87.2,7.1z"/>
		<path class="st1" d="M90.5,5.4c0,0-0.1,0-0.1-0.1c0,0,0,0.1-0.1,0.1c0.1,0,0.2,0.1,0.2,0.1c0,0-0.1,0.1-0.1,0.1c0,0,0,0-0.1,0.1
			c0,0,0,0.1,0,0.1c0,0,0,0,0.1,0.1c0.1,0.1,0.2,0.1,0.2,0.1c0,0,0,0,0,0V5.8c0,0,0,0,0,0c0-0.1,0-0.1,0-0.1V5.4
			C90.6,5.4,90.5,5.4,90.5,5.4z"/>
		<path class="st0" d="M90.6,5.8C90.6,5.8,90.6,5.8,90.6,5.8l0-0.1C90.5,5.7,90.5,5.7,90.6,5.8z"/>
		<path class="st0" d="M90.5,8.4c0-0.1,0-0.1-0.1-0.2c-0.1-0.1-0.1-0.3-0.2-0.4c-0.2-0.2-0.7-0.6-0.6-0.1c0,0.4,0,0.8-0.2,1.2
			c-0.1,0.2-0.3,0.5-0.3,0.7c0.1,0.2,0.5,0.2,0.6,0.2c0.1,0,0.5-0.2,0.6-0.2c0,0,0,0,0,0c0.1,0.3,0.1,0.6,0.2,0.8V9.6
			c-0.1-0.2-0.1-0.4-0.1-0.7c0-0.1,0-0.1,0.1-0.2V8.5c0,0,0,0,0,0C90.5,8.5,90.5,8.4,90.5,8.4z"/>
		<path class="st0" d="M90.2,10.6c-0.1-0.1-0.1-0.2-0.2-0.3c-0.1,0-0.6,0-0.6,0.2c0,0.1,0.1,0.3,0.1,0.4c0,0.2,0,0.3,0,0.5
			c0,0.1,0,0.1,0.1,0.2c0.1,0,0.2,0.1,0.3,0.2c0.1,0.1,0.1,0.3,0.2,0.4c0.1,0.2,0.1,0.3,0,0.5c0,0,0,0.1,0,0.1
			c0,0.2,0.3,0.3,0.4,0.5c0,0.1,0.1,0.2,0,0.3c0,0.1-0.1,0.1-0.2,0.1c-0.1,0-0.2,0-0.3,0.1c0,0-0.3,0-0.3,0c0.1-0.1,0.1-0.3,0.1-0.4
			s-0.1-0.3-0.2-0.4c0.1-0.4,0-1.2-0.6-1.2c0,0-0.1,0-0.1,0c0,0,0,0,0-0.1c0.1-0.2,0.1-0.5,0-0.7c-0.1-0.2-0.2-0.4-0.4-0.4
			c-0.2,0-0.4,0.1-0.5,0.3c-0.2,0.1-0.3,0.2-0.5,0.3c-0.2,0.1-0.4,0.1-0.6,0.2c-0.1,0-0.3-0.1-0.5,0c-0.1,0-0.1,0.2-0.2,0.3
			c0,0.1,0,0.2,0,0.4c0,0.1,0,0.1,0,0.2c0.1,0.4,0.5,0.6,0.9,0.7C87,12.7,87,12.8,87,12.9s0.1,0.2,0.2,0.3c0.1,0.1,0.3,0.2,0.4,0.3
			c-0.2,0-0.4,0-0.6,0c-0.1,0-0.2,0-0.3,0c0,0-0.3,0-0.3-0.1c0,0,0,0,0-0.1c-0.1-0.1-0.2-0.3-0.1-0.5c0-0.2,0.1-0.2,0-0.3
			c-0.1-0.1-0.2-0.1-0.3-0.2c-0.1-0.1-0.2-0.2-0.2-0.3c-0.1-0.1-0.1-0.3-0.1-0.4c0-0.2,0.1-0.3,0.1-0.4c-0.1-0.1-0.3-0.2-0.3-0.3
			c-0.2-0.3-0.3-0.6-0.3-1c-0.3,0.1-0.7,0.1-1.1,0c-0.3-0.1-0.6-0.1-0.8-0.3c-0.2-0.2-0.4-0.4-0.5-0.6c-0.1-0.2-0.2-0.4-0.3-0.6
			c0-0.1-0.1-0.2-0.1-0.3c0-0.1,0.1-0.2,0.2-0.2c0.1-0.1,0.2-0.3,0.4-0.4c0,0.1,0,0.2,0.1,0.3c0,0.1,0.1,0.3,0.1,0.4
			c0.1,0.2,0.3,0.5,0.5,0.6c0.3,0.3,0.7,0.4,1.1,0.4c0.3,0,0.6,0,0.9-0.1c0,0,0.2,0.7,0.2,0.7c0.1,0.2,0.2,0.4,0.4,0.6
			c0.1,0.1,0.2,0.1,0.3,0.1c0.3,0.1,0.6,0.1,0.9,0c0.3-0.1,0.5-0.3,0.7-0.6C88,10.1,88,9.8,88,9.5c0-0.2-0.1-0.3,0.2-0.3
			c0.4,0,0.7-0.2,0.9-0.5c0.2-0.4,0.3-0.9,0-1.3C89,7.2,88.8,7,88.7,6.9c-0.1-0.1-0.2-0.2-0.3-0.3c0,0,0.2,0,0.2-0.1
			c0.1,0,0.2-0.1,0.3-0.1c0.1,0,0.1,0,0.2,0.1c0.1,0.1,0.2,0.2,0.3,0.3c0,0,0,0,0.1,0.1c0,0,0.1,0,0.1,0c0.2-0.1,0.5,0,0.7,0.2
			c0.1,0.2,0.2,0.4,0.2,0.6c0,0,0.1,0.1,0.1,0.1V6.7c0,0-0.1,0-0.1-0.1c-0.1-0.1-0.1-0.2-0.1-0.3c0-0.1,0.1-0.1,0.2-0.2V6
			c0,0,0,0,0,0c-0.1-0.1-0.2-0.1-0.2-0.1c0,0,0,0-0.1-0.1c0,0,0-0.1,0-0.1c0,0,0,0,0.1-0.1c0,0,0.1-0.1,0.1-0.1c0,0-0.1-0.1-0.2-0.1
			c0,0,0-0.1,0.1-0.1c0,0,0.1,0.1,0.1,0.1c0,0,0.1,0,0.1,0V4c-0.2,0.2-0.3,0.4-0.4,0.6c-0.1,0.1-0.1,0.2-0.2,0.3
			c-0.1,0.2-0.2,0.4-0.4,0.6C89.1,6.2,88,6.3,87,6.3l-1.9,0.1c-0.4,0-0.8,0-1.2,0.1c-0.7,0.2-1.4,0.7-2,1.4
			c-0.9,1.1-0.9,2.6-0.8,4.1l0.3,7.7l0,0c0,0.1,0,0.2,0.1,0.2c0.2,0.2,0.4,0.2,0.5,0.2c0,0,0,0,0,0l1.5,0c0.1,0,0.2,0,0.4-0.1
			c0.2-0.2,0.3-0.6,0.3-0.8c0.1-0.9,0.3-1.9,0.5-2.8c0-0.2,0.7-2.6,0.8-2.6c0.6,0.3,1.3,0.3,2,0.4c0.2,0,0.4,0,0.5,0
			c0.7,0.1,1.6,0,2.4-0.1V11C90.4,10.9,90.3,10.7,90.2,10.6z M87.1,7c0.1,0,0.2,0,0.3-0.1c0.1,0,0.2,0,0.4,0l0,0c0.2,0,0.3,0,0.5,0
			c0,0,0.1,0,0.1,0S88.4,7,88.4,7c0,0,0,0-0.1,0.1c-0.1,0.1-0.3,0.1-0.5,0.1c-0.2,0-0.3,0-0.5,0c-0.1,0-0.2,0-0.2,0
			C87.1,7.1,87.1,7.1,87.1,7C87.1,7.1,87.1,7.1,87.1,7z M85.9,6.8L85.9,6.8C85.9,6.8,85.9,6.8,85.9,6.8l0.5,0
			c0.3,0.1,0.6,0.3,0.8,0.6c0,0.1,0.1,0.1,0.1,0.1c0,0,0.1,0.1,0.1,0.1c0.3,0.1,0.5,0.3,0.7,0.5c0.1,0.1,0.2,0.2,0.4,0.2
			c0.1,0.1,0.3,0.1,0.4,0.2c-0.4,0-0.8,0.1-1.2,0.2c-0.4,0.1-0.8,0-1.1-0.2c-0.1-0.1-0.2-0.2-0.2-0.3C86.2,8.2,86,8,86,7.7
			C85.9,7.4,86,7.1,85.9,6.8L85.9,6.8z M85.6,6.8l0.2,0c0,0,0,0,0,0.1c0,0.4,0.1,0.8,0.1,1.2c0,0.3,0.1,0.5,0.2,0.7s0.4,0.4,0.6,0.4
			c0.1,0,0.2-0.1,0.3-0.1c0.1,0,0.3,0,0.3,0.1c0,0.1,0,0.1,0,0.2c0,0.2,0,0.4-0.1,0.6c-0.1,0.1-0.2,0.2-0.4,0.2c-0.1,0-0.3,0-0.4,0
			c0,0-0.1,0-0.1,0c0,0-0.1-0.1-0.1-0.1c-0.1-0.1-0.1-0.3-0.1-0.5c0-0.1,0.1-0.2,0-0.3C86.1,9.2,86,9.1,86,9
			c-0.2-0.2-0.2-0.4-0.3-0.7c0-0.3-0.1-0.6-0.1-0.8C85.6,7.3,85.6,7.1,85.6,6.8C85.6,6.9,85.6,6.8,85.6,6.8z M83.3,7.5
			c0.2,0,0.2,0,0.4-0.1c0,0,0.1,0,0.1,0c0,0,0.1,0,0.1-0.1c0.1-0.1,0.3-0.1,0.4,0c0,0,0,0.1-0.1,0.1c-0.1,0.1-0.3,0.2-0.4,0.3
			c-0.1,0-0.2,0-0.3,0.1c-0.1,0-0.1,0-0.1,0c0,0-0.1,0-0.1,0c0,0,0,0-0.1-0.1C83.1,7.5,83.2,7.5,83.3,7.5z M83.2,8.3
			c0.1,0,0.3,0,0.4-0.1c0.1,0,0.2-0.1,0.3-0.2c0.2-0.2,0.3-0.4,0.5-0.7c0.1-0.2,0.2-0.4,0.5-0.6c0.1,0,0.2,0,0.3,0l0.3,0
			c0,0.2,0,0.4-0.1,0.6c0,0.2,0,0.5,0,0.7c0,0.1,0,0.2-0.1,0.3c0,0.1-0.1,0.1-0.2,0.2c-0.3,0.2-0.8,0.2-1.2,0.1
			c-0.2,0-0.4-0.1-0.6-0.2c-0.2-0.1-0.3-0.1-0.4-0.2c0,0,0,0,0,0C83.1,8.3,83.1,8.3,83.2,8.3z M82,10.7c0,0.3,0,0.5-0.1,0.8
			c-0.1,0.1-0.1,0.3-0.2,0.5c0-1.2,0-2.3,0.4-3.2c0,0,0,0,0,0C82,9.4,82,10,82,10.7z M88.9,13.6c-0.1,0-0.1,0-0.2,0
			c-0.3,0-0.5,0-0.7-0.1c-0.2-0.1-0.3-0.3-0.3-0.5c0-0.2,0.1-0.3,0.2-0.4c0,0,0.2-0.2,0.1-0.2c-0.2-0.1-0.4,0.1-0.6,0.1
			c-0.2,0-0.3-0.3-0.3-0.5c0-0.3,0.2-0.5,0.5-0.7c0.2-0.1,0.6-0.1,0.8,0c0,0.1-0.1,0.1-0.2,0.2c-0.1,0-0.2,0.1-0.2,0.2l0,0
			c0,0,0,0.1,0,0.1c0.2,0,0.3,0,0.5,0c0.1,0,0.2,0,0.3,0.1c0.1,0.1,0.1,0.1,0.1,0.2c0,0.2,0,0.4-0.1,0.5c0.2,0,0.4,0,0.5,0.1
			c0.1,0.1,0.2,0.3,0.2,0.5C89.4,13.4,89.1,13.6,88.9,13.6z"/>
		<path class="st0" d="M90.6,5.6c0,0,0.1,0,0.1,0c0,0,0,0,0,0c0,0,0,0,0,0c0-0.1-0.1-0.1-0.2-0.2c0,0,0,0,0,0L90.6,5.6
			C90.6,5.6,90.6,5.6,90.6,5.6z"/>
		<path class="st0" d="M90.8,6.2C90.8,6.1,90.8,6.1,90.8,6.2C90.7,6.1,90.7,6,90.6,6v0.2C90.7,6.2,90.7,6.2,90.8,6.2
			C90.8,6.2,90.8,6.2,90.8,6.2z"/>
	</g>
	<g>
	</g>
	<g>
	</g>
	<g>
	</g>
	<g>
	</g>
	<g>
	</g>
	<g>
	</g>
</g>
</svg>
